<?xml version="1.0" encoding="utf-8"?>
<!-- Generator: Adobe Illustrator 23.1.0, SVG Export Plug-In . SVG Version: 6.00 Build 0)  -->
<svg version="1.1" id="Layer_1" xmlns="http://www.w3.org/2000/svg" xmlns:xlink="http://www.w3.org/1999/xlink" x="0px" y="0px"
	 viewBox="0 0 654 58" style="enable-background:new 0 0 654 58;" xml:space="preserve">
<style type="text/css">
	.st0{fill:#FFFFFF;}
</style>
<g>
	<g>
		<path class="st0" d="M31.8,31.3l-3.4-6.6h-20L5,31.3h-5.4L15.3,1.6h6.2l15.7,29.7H31.8z M18.4,5.9l-7.6,14.3H26L18.4,5.9z"/>
	</g>
	<g>
		<path class="st0" d="M77.6,31.3V7h-0.1L62,26.4L46.7,7.1h-0.1v24.3h-4.9V1.7h6.1l14.3,18l14.3-18h6.1v29.7h-4.9V31.3z"/>
		<path class="st0" d="M91.5,31.3V1.6h4.9v29.7H91.5z"/>
		<path class="st0" d="M150.3,10.9c0,5.9-3.8,9.1-10.8,9.1h-17.7v11.3h-4.9V1.6h23.5C146.5,1.7,150.3,5.3,150.3,10.9z M145.3,11
			c0-3.3-2-4.9-6-4.9h-17.4v9.4h17.7C143.3,15.5,145.3,13.9,145.3,11z"/>
		<path class="st0" d="M183.1,31.3l-8-11.3h-15v11.3h-4.9V1.6h23.4c6.2,0,10,3.6,10,9.3c0,5.2-3.3,8-7.7,8.8l8,11.6L183.1,31.3
			L183.1,31.3z M183.5,11c0-3.3-2-4.9-6.1-4.9h-17.3v9.4h17.7C181.5,15.5,183.5,13.9,183.5,11z"/>
	</g>
	<g>
		<path class="st0" d="M194.6,31.3V1.6h29.9v4.5h-25v7.6h17.4v4.5h-17.4v8.7h26.1v4.5h-31V31.3z"/>
	</g>
	<g>
		<path class="st0" d="M267.2,31.3V7h-0.1l-15.4,19.3L236.4,7h-0.1v24.3h-4.9V1.6h6.1l14.3,18l14.3-18h6.1v29.7H267.2z"/>
		<path class="st0" d="M279.3,31.3V1.6h4.9v29.7H279.3z"/>
		<path class="st0" d="M308.1,32.2c-10.4,0-16.8-4.5-16.8-10.5V1.6h4.9v18.9c0,4.6,4.1,7.2,11.9,7.2s11.8-2.6,11.8-7.2V1.6h4.9v20.1
			C324.9,27.8,318.5,32.2,308.1,32.2z"/>
		<path class="st0" d="M367.7,31.3V7h-0.1l-15.4,19.3L336.9,7h-0.1v24.3h-4.9V1.6h6.1l14.3,18l14.3-18h6.1v29.7H367.7z"/>
	</g>
	<g>
		<path class="st0" d="M424,28.3c-3.3,2.5-7.9,3.9-13,3.9s-9.9-1.5-13.1-4c-4-3-6-6.9-6-11.8c0-4.8,2-8.7,6.1-11.7c3.3-2.5,8-4,13-4
			s9.7,1.5,13,4c4,3,6,7,6,11.7C429.9,21.3,427.9,25.3,424,28.3z M420.4,8c-2.4-1.7-5.7-2.8-9.5-2.8c-8.3,0-14,4.8-14,11.2
			c0,6.7,5.5,11.2,14,11.2s13.9-4.6,13.9-11.2C424.8,13,423.3,10.2,420.4,8z"/>
	</g>
	<g>
		<path class="st0" d="M452.2,32.2c-10.4,0-16.8-4.5-16.8-10.5V1.6h4.9v18.9c0,4.6,4.1,7.2,11.9,7.2c7.8,0,11.8-2.6,11.8-7.2V1.6
			h4.9v20.1C469,27.8,462.6,32.2,452.2,32.2z"/>
		<path class="st0" d="M492.3,6.1v25.2h-4.9V6.1h-14.2V1.6h33.3v4.5H492.3z"/>
		<path class="st0" d="M510.9,31.3V1.6h4.9v25.2h22.9v4.5H510.9z"/>
	</g>
	<g>
		<path class="st0" d="M543,31.3V1.6h29.9v4.5h-25v7.6h17.4v4.5h-17.4v8.7H574v4.5h-31V31.3z"/>
		<path class="st0" d="M595.7,6.1v25.2h-4.9V6.1h-14.2V1.6h33.3v4.5H595.7z"/>
	</g>
	<g>
		<path class="st0" d="M625,5.3c-6.1,0-9.4,1.6-9.4,4c0,1.4,0.9,2.3,2.6,2.9c3.2,1.1,8.1,0.8,14.1,1.6c7.4,0.9,10.9,3.5,10.9,8.4
			c0,6.2-5.7,9.9-16.2,9.9c-7.5,0-13.4-1.6-17.7-5l2.7-3.6c4.8,2.9,9.6,4.3,15,4.3c7,0,10.8-2,10.8-5.2c0-4.2-5-4.2-13.8-4.8
			c-9.1-0.6-13.7-2-13.7-7.7c0-5.5,5.3-9,15-9c6.4,0,11.8,1.5,16.1,4.4l-3,3.3C634.1,6.4,629.7,5.3,625,5.3z"/>
	</g>
	<g>
		<path class="st0" d="M161.2,57.8v-9.2l0,0l-5.8,7.3l-5.8-7.3l0,0v9.2h-1.9V46.6h2.3l5.4,6.8l5.4-6.8h2.3v11.2H161.2z"/>
		<path class="st0" d="M169.1,57.8V46.6h1.9v11.2H169.1z"/>
	</g>
	<g>
		<path class="st0" d="M182.4,48.2v9.6h-1.9v-9.6h-5.4v-1.7h12.6v1.7H182.4z"/>
	</g>
	<g>
		<path class="st0" d="M196,47.9c-2.3,0-3.6,0.6-3.6,1.5c0,0.5,0.3,0.9,1,1.1c1.2,0.4,3.1,0.3,5.4,0.6c2.8,0.4,4.1,1.3,4.1,3.2
			c0,2.4-2.1,3.7-6.1,3.7c-2.9,0-5.1-0.6-6.7-1.9l1-1.4c1.8,1.1,3.6,1.6,5.7,1.6c2.7,0,4.1-0.8,4.1-2c0-1.6-1.9-1.6-5.2-1.8
			c-3.5-0.2-5.2-0.8-5.2-2.9s2-3.4,5.7-3.4c2.4,0,4.5,0.6,6.1,1.7l-1.1,1.3C199.4,48.3,197.8,47.9,196,47.9z"/>
		<path class="st0" d="M214.4,58.1c-3.9,0-6.4-1.7-6.4-4v-7.6h1.9v7.2c0,1.7,1.6,2.7,4.5,2.7c3,0,4.5-1,4.5-2.7v-7.2h1.9v7.6
			C220.7,56.5,218.3,58.1,214.4,58.1z"/>
		<path class="st0" d="M239.9,54.8c0,1.9-1.4,3-4.3,3h-9V46.6h9.1c2.3,0,3.7,1.2,3.7,3.1c0,1.1-0.5,1.8-1.5,2.4
			C239.2,52.4,239.9,53.4,239.9,54.8z M237.6,49.7c0-0.9-0.7-1.5-1.7-1.5h-7.3v3h7.3C236.8,51.3,237.6,50.6,237.6,49.7z M237.9,54.6
			c0-1.1-0.7-1.6-2-1.6h-7.4v3.2h7.1C237.2,56.1,237.9,55.7,237.9,54.6z"/>
	</g>
	<g>
		<path class="st0" d="M245.1,57.8V46.6h1.9v11.2H245.1z"/>
		<path class="st0" d="M257.7,47.9c-2.3,0-3.6,0.6-3.6,1.5c0,0.5,0.3,0.9,1,1.1c1.2,0.4,3.1,0.3,5.4,0.6c2.8,0.4,4.1,1.3,4.1,3.2
			c0,2.4-2.1,3.7-6.1,3.7c-2.9,0-5.1-0.6-6.7-1.9l1-1.4c1.8,1.1,3.6,1.6,5.7,1.6c2.7,0,4.1-0.8,4.1-2c0-1.6-1.9-1.6-5.2-1.8
			c-3.5-0.2-5.2-0.8-5.2-2.9s2-3.4,5.7-3.4c2.4,0,4.5,0.6,6.1,1.7l-1.1,1.3C261.1,48.3,259.5,47.9,257.7,47.9z"/>
		<path class="st0" d="M280.6,57.8v-5h-9v5h-1.9V46.6h1.9v4.6h9v-4.6h1.9v11.2H280.6z"/>
		<path class="st0" d="M288.5,57.8V46.6h1.9v11.2H288.5z"/>
	</g>
	<g>
		<path class="st0" d="M303.2,57.8V46.6h11.3v1.7H305v2.9h6.6v1.7H305v3.3h9.9v1.7h-11.7V57.8z"/>
		<path class="st0" d="M324.2,47.9c-2.3,0-3.6,0.6-3.6,1.5c0,0.5,0.3,0.9,1,1.1c1.2,0.4,3.1,0.3,5.4,0.6c2.8,0.4,4.1,1.3,4.1,3.2
			c0,2.4-2.1,3.7-6.1,3.7c-2.9,0-5.1-0.6-6.7-1.9l1-1.4c1.8,1.1,3.6,1.6,5.7,1.6c2.7,0,4.1-0.8,4.1-2c0-1.6-1.9-1.6-5.2-1.8
			c-3.5-0.2-5.2-0.8-5.2-2.9s2-3.4,5.7-3.4c2.4,0,4.5,0.6,6.1,1.7l-1.1,1.3C327.7,48.3,326,47.9,324.2,47.9z"/>
	</g>
	<g>
		<path class="st0" d="M341,48.2v9.6h-1.9v-9.6h-5.4v-1.7h12.6v1.7H341z"/>
		<path class="st0" d="M359.5,57.8l-1.3-2.5h-7.6l-1.3,2.5h-2l5.9-11.2h2.3l5.9,11.2H359.5z M354.4,48.1l-2.9,5.4h5.7L354.4,48.1z"
			/>
		<path class="st0" d="M369.7,48.2v9.6h-1.9v-9.6h-5.4v-1.7H375v1.7H369.7z"/>
	</g>
	<g>
		<path class="st0" d="M379.2,57.8V46.6h11.3v1.7H381v2.9h6.6v1.7H381v3.3h9.9v1.7h-11.7V57.8z"/>
		<path class="st0" d="M403.5,53.7V52h2.4v1.7H403.5z"/>
		<path class="st0" d="M424,47.9c-2.3,0-3.6,0.6-3.6,1.5c0,0.5,0.3,0.9,1,1.1c1.2,0.4,3.1,0.3,5.4,0.6c2.8,0.4,4.1,1.3,4.1,3.2
			c0,2.4-2.1,3.7-6.1,3.7c-2.9,0-5.1-0.6-6.7-1.9l1-1.4c1.8,1.1,3.6,1.6,5.7,1.6c2.7,0,4.1-0.8,4.1-2c0-1.6-1.9-1.6-5.2-1.8
			c-3.5-0.2-5.2-0.8-5.2-2.9s2-3.4,5.7-3.4c2.4,0,4.5,0.6,6.1,1.7l-1.1,1.3C427.4,48.3,425.8,47.9,424,47.9z"/>
		<path class="st0" d="M436.1,57.8V46.6h1.9v11.2H436.1z"/>
		<path class="st0" d="M457.5,57.8v-9.2l0,0l-5.8,7.3l-5.8-7.3l0,0v9.2H444V46.6h2.3l5.4,6.8l5.4-6.8h2.3v11.2H457.5z"/>
		<path class="st0" d="M477,56.6c-1.2,0.9-3,1.5-4.9,1.5c-2,0-3.7-0.6-5-1.5c-1.5-1.1-2.3-2.6-2.3-4.5c0-1.8,0.8-3.3,2.3-4.4
			c1.3-0.9,3-1.5,4.9-1.5s3.7,0.6,4.9,1.5c1.5,1.1,2.3,2.7,2.3,4.4C479.2,54,478.5,55.5,477,56.6z M475.6,49
			c-0.9-0.7-2.2-1.1-3.6-1.1c-3.1,0-5.3,1.8-5.3,4.3s2.1,4.3,5.3,4.3s5.3-1.7,5.3-4.3C477.3,50.8,476.7,49.8,475.6,49z"/>
		<path class="st0" d="M495.1,57.8l-8.6-9.2v9.2h-1.9V46.6h2.3l8.6,9.2v-9.2h1.9v11.2H495.1z"/>
	</g>
	<g>
		<path class="st0" d="M649.5,3.9V2.4h0.9c0.5,0,0.8,0.3,0.8,0.7c0,0.4-0.3,0.7-0.8,0.7L649.5,3.9L649.5,3.9z M651.1,6.2h0.7l-1-1.8
			c0.6-0.1,1-0.6,1-1.2c0-0.7-0.5-1.3-1.3-1.3h-1.6v4.3h0.6V4.4h0.6L651.1,6.2L651.1,6.2z M650.3,7.9c-2.1,0-3.9-1.7-3.9-3.9
			c0-2.1,1.7-3.9,3.9-3.9c2.1,0,3.9,1.7,3.9,3.9C654.2,6.2,652.4,7.9,650.3,7.9L650.3,7.9z M650.3,0.7c-1.8,0-3.3,1.5-3.3,3.3
			s1.5,3.3,3.3,3.3s3.3-1.5,3.3-3.3S652.1,0.7,650.3,0.7L650.3,0.7z"/>
	</g>
</g>
</svg>
