<?xml version="1.0" encoding="UTF-8"?><svg id="_レイヤー_1" xmlns="http://www.w3.org/2000/svg" viewBox="0 0 443.38 32.34"><defs><style>.cls-1{fill:#221815;}</style></defs><path class="cls-1" d="M425.23,17.38c-1.74-1.33-2.81-2.58-3.8-3.86,1.89-2.7,2.97-4.97,3.26-5.95V3.56h-3.88V.05h-4.34v3.51h-4.36v4.02h7.85s-1.33,3.64-7.85,9.65v5.7c1.62-1.13,3.06-2.35,4.36-3.6v11.97h4.34v-12.73c1.45,1.48,3.23,2.96,4.42,3.59v-4.78Z"/><path class="cls-1" d="M375.01,19.72h7.78c-1.02,2.38-2.45,5.08-3.69,7.12-.92.01-1.71.02-2.32.02v4.42c3.2-.02,13.12-.1,23.57-1.58.17.52.34,1.05.49,1.58h4.93c-1.15-3.58-3.15-8.22-3.96-9.39h-4.63c.53,1.06,1.15,2.41,1.75,3.92-4.36.51-9.94.77-14.59.91,1.55-2.11,3.53-5.42,4.41-7.02h17.73v-4.02h-31.47v4.02Z"/><path class="cls-1" d="M393.84.05h-6.19c-3.66,3.15-7.58,5.12-12.64,6.97v4.61c1.74-.53,4.05-1.38,6.49-2.52v3.61h18.49v-3.61c2.44,1.15,4.74,2,6.49,2.52v-4.61c-5.06-1.85-8.98-3.82-12.64-6.97M382.42,8.65c2.9-1.45,5.91-3.31,8.32-5.59,2.42,2.28,5.42,4.15,8.32,5.59h-16.64Z"/><polygon class="cls-1" points="436.49 26.87 436.49 12.53 442.7 12.53 442.7 8.08 436.49 8.08 436.49 .05 431.73 .05 431.73 8.08 425.54 8.08 425.54 12.53 431.73 12.53 431.73 26.87 424.84 26.87 424.84 31.29 443.38 31.29 443.38 26.87 436.49 26.87"/><path class="cls-1" d="M332.27,17.12v-4.02h-7.07v-5.81h7.07V3.27h-7.07V.05h-4.39v3.22h-1.85c.07-.94.12-1.88.13-2.77h-3.9c-.02.3-.07.87-.07.87-.2,2.34-.53,6.21-1.2,9.93h4.05c.05-.34.19-1.33.19-1.33.11-.79.24-1.71.37-2.68h2.28v5.81h-7.17v4.02h2.11c-.57,4.5-1.6,9.59-2.52,14.17h4.15c.95-4.33,1.8-9.7,2.45-14.17h.98v14.17h4.39v-14.17h.95c.65,4.47,1.49,9.85,2.45,14.17h4.15c-.92-4.58-1.95-9.68-2.52-14.17h2.04Z"/><path class="cls-1" d="M311.21,7.93h2.05l.04-4.02h-3.81V.05h-3.94v3.86h-4.57v4.02h2.14c-.51,4.89-1.74,12.23-3.02,18.48h3.47c.56-3.08,1.41-8.4,1.98-12.69v17.58h3.94V13.87c.44,3.15,1.02,6.21,1.4,8.03h2.81c-.95-3.99-2.04-9.92-2.5-13.98"/><rect class="cls-1" x="364.72" y=".05" width="4.38" height="3.11"/><path class="cls-1" d="M349.78,16.87h6.33v-4.33h-16.94v4.33h6v9.24c-2.59.27-4.68.43-6.06.53v4.63c2.88-.07,12.43-1.2,17.57-2.68v-4.17c-2.43.46-4.76.83-6.91,1.12v-8.68Z"/><path class="cls-1" d="M369.93,8.79v-4.33h-6.76c-.06-1.41-.1-2.87-.1-4.41h-5.02c0,1.49.04,2.96.12,4.41h-19.52v4.33h19.85c.93,9.11,3.23,16.96,6.06,22.51h5.42c-3.18-6.75-5.58-13.26-6.49-22.51h6.45Z"/><path class="cls-1" d="M66.66,21.12h-15.72c1.34-.95,2.57-2.08,3.57-3.41h-5.01c-4.73,3.63-9.43,4.42-12.11,4.96v3.35c.64-.06,3.01-.39,5.91-1.28.96.81,2.06,1.55,3.28,2.22-3.45.55-6.83.83-9.18.83v3.49c5.87,0,11.11-.64,15.56-1.82,4.33,1.19,9.57,1.82,15.73,1.82v-3.49c-2.74,0-6.04-.21-9.29-.68,3.2-1.59,5.67-3.6,7.28-5.99M52.76,25.68c-1.78-.55-3.37-1.23-4.64-2.04h10.02c-1.35.78-3.24,1.46-5.37,2.04M81.15,10.3h2.06v-4.27h-2.06V.05h-4.32v5.98h-2.47v4.27h2.47v12.93c-.95.23-1.8.43-2.47.55v4.72c2.11-.39,8.19-2.36,10.32-3.43v-4.24c-.86.36-2.13.78-3.53,1.2v-11.74ZM64.09.05h-4.19v1.27h-13.74V.05h-4.18v1.27h-4.59v3.25h4.59v1.28h4.18v-1.28h13.74v1.28h4.19v-1.28h4.59V1.31h-4.59V.05ZM55.13,10.23h12.27v-3.18h-12.27v-1.35h-4.18v1.35h-12.29v3.18h12.29v1.61h-13.55v3.19h6.84c-1.88,1.34-4.71,2.19-6.84,2.5v3.32c2.04-.23,8.54-1.42,12.26-5.81h6.58v2.4c0,1.51.99,2.35,2.8,2.35h9.64v-3.11h-7.2c-.91,0-.91-.61-.91-.94v-.7h8.12v-3.19h-13.55v-1.61ZM0,29.63h31.28v-4.44H0v4.44ZM29.8,2.04H1.48v4.45h28.32V2.04ZM126.32.97h-13.79v4h13.79V.97ZM29.03,13.08H2.26v4.44h26.77v-4.44ZM98.14.05h-4.32v5.67c-.92.24-2.08.54-3.26.85v-3.75h-4.3v4.87c-.91.24-1.52.4-1.56.4v4.61c.05-.01.64-.17,1.56-.4v14.4c0,2.12,1.23,4.6,4.69,4.6h14.69v-4.42h-13.1c-1.32,0-1.99-.67-1.99-1.99v-13.71c1.05-.27,2.16-.56,3.26-.85v12.03h4.32v-13.16c1.92-.5,3.26-.85,3.26-.85v14.01h4.25V2.65c-.2.05-4.64,1.21-7.51,1.95V.05ZM126.32,7.39h-13.42v10.13c0,1.81-.13,8.12-1.79,13.77h4.63c.73-1.95,1.3-6.56,1.54-10.32l.02-.26h9.02V7.39ZM122.27,16.85h-4.85v-5.42h4.85v5.42ZM133.13,5.11h.27c1.59,0,6.96-.21,9.49-.87,0-.17,0-3.99,0-4.25-5.99.97-7.79.97-13.6.97h-.74v11.86c0,5.29-.62,13.25-2.34,18.46h4.68c1.15-3.04,2.11-13.51,2.22-17.64h3.64v17.64h4.48V13.65h2.58v-4.23h-10.69v-4.3Z"/><path class="cls-1" d="M189.14,11.73v.7c0,12.09-5.68,18.65-19.28,19.52v-4.42c11.11-1.02,14.48-6.2,14.48-14.3v-1.51h-12.65v9.36h-4.73v-9.36h-5.54v-4.38h5.54V.79h4.73v6.55h12.65V.79h4.8v6.55h5.61v4.38h-5.61Z"/><path class="cls-1" d="M217.33,12.78v19.56h-5.08V15.72c-4.7,2.17-9.88,3.51-15.04,4.28v-4.63c14.09-2.66,20.92-8.06,24.15-14.51h5.54c-2.07,5.19-5.43,9.04-9.57,11.92"/><path class="cls-1" d="M244.06,17.06v5.26c0,2.91.88,4.31,4.77,4.31h9.94v4.49h-11.69c-5.71,0-8.06-2.63-8.06-7.5v-6.55h-9.15v-4.45h9.15v-6.24h-7.54V1.95h27.15v4.42h-14.57v6.24h16.32v4.45h-16.32Z"/><path class="cls-1" d="M266.53,7V2.13c4.66.35,10.23,1.05,15.14,2.03v5.05c-4.98-1.08-10.41-1.89-15.14-2.21M266.95,31.11v-4.77c12.65-1.02,20.25-4.84,21.93-19.28h5.15c-1.61,16.93-10.75,23.41-27.08,24.04"/><path class="cls-1" d="M156.67,16.16c0,1.57-1.27,2.83-2.83,2.83s-2.83-1.27-2.83-2.83,1.27-2.83,2.83-2.83,2.83,1.27,2.83,2.83"/></svg>