<?xml version="1.0" encoding="UTF-8"?><svg id="Layer_1" xmlns="http://www.w3.org/2000/svg" viewBox="0 0 553.35 98.2"><defs><style>.cls-1{fill:#fff;}</style></defs><polygon class="cls-1" points="4.91 5.4 4.91 12.97 22.26 12.97 22.26 17.43 4.91 17.43 4.91 30.57 0 30.57 0 .94 29.88 .94 29.88 5.4 4.91 5.4"/><path class="cls-1" d="M50.34,31.47c-10.4,0-16.82-4.46-16.82-10.48V.94h4.91V19.81c0,4.58,4.09,7.16,11.91,7.16s11.83-2.58,11.83-7.16V.94h4.91V20.99c0,6.06-6.38,10.48-16.74,10.48"/><polygon class="cls-1" points="102.15 30.57 87.91 14.98 78.99 21.57 78.99 30.57 74.08 30.57 74.08 .94 78.99 .94 78.99 16.29 99.74 .94 106.82 .94 91.68 12.15 108.45 30.57 102.15 30.57"/><path class="cls-1" d="M141.81,30.57l-3.44-6.63h-19.93l-3.44,6.63h-5.36L125.32,.94h6.18l15.67,29.63h-5.36Zm-13.38-25.41l-7.57,14.32h15.1l-7.53-14.32Z"/><polygon class="cls-1" points="162.36 18.86 162.36 30.57 157.45 30.57 157.45 18.86 141.24 .94 147.34 .94 159.94 14.77 172.47 .94 178.56 .94 162.36 18.86"/><path class="cls-1" d="M204.8,30.57l-3.44-6.63h-19.93l-3.44,6.63h-5.36L188.31,.94h6.18l15.67,29.63h-5.36Zm-13.38-25.41l-7.57,14.32h15.1l-7.53-14.32Z"/><rect class="cls-1" x="213.19" y="13.15" width="16.82" height="4.46"/><polygon class="cls-1" points="266.07 30.57 266.07 17.43 242.33 17.43 242.33 30.57 237.42 30.57 237.42 .94 242.33 .94 242.33 12.97 266.07 12.97 266.07 .94 270.98 .94 270.98 30.57 266.07 30.57"/><path class="cls-1" d="M307.49,30.57l-3.44-6.63h-19.93l-3.43,6.63h-5.36L290.99,.94h6.19l15.67,29.63h-5.36Zm-13.38-25.41l-7.57,14.32h15.1l-7.53-14.32Z"/><polygon class="cls-1" points="344.78 30.57 322.1 6.26 322.1 30.57 317.19 30.57 317.19 .94 323.29 .94 345.92 25.25 345.92 .94 350.83 .94 350.83 30.57 344.78 30.57"/><path class="cls-1" d="M387.34,30.57l-3.44-6.63h-19.93l-3.43,6.63h-5.36L370.85,.94h6.18l15.67,29.63h-5.36Zm-13.38-25.41l-7.57,14.32h15.1l-7.53-14.32Z"/><polygon class="cls-1" points="396.88 30.57 396.88 26.11 421.36 5.4 397.25 5.4 397.25 .94 427.98 .94 427.98 5.4 403.51 26.11 429.09 26.11 429.09 30.57 396.88 30.57"/><path class="cls-1" d="M464.37,27.5c-3.27,2.46-7.85,3.93-13.02,3.93s-9.86-1.52-13.09-3.97c-3.96-2.99-5.98-6.92-5.98-11.74s2.05-8.68,6.06-11.71c3.31-2.5,7.94-4.01,13.01-4.01s9.7,1.51,12.98,4.01c3.97,3.03,6.01,7,6.01,11.71s-2,8.8-5.98,11.78m-3.56-20.21c-2.37-1.72-5.73-2.79-9.46-2.79-8.26,0-13.95,4.75-13.95,11.22s5.45,11.21,13.95,11.21,13.87-4.58,13.87-11.21c0-3.44-1.46-6.26-4.42-8.43"/><polygon class="cls-1" points="503.58 30.57 480.9 6.26 480.9 30.57 476 30.57 476 .94 482.09 .94 504.73 25.25 504.73 .94 509.63 .94 509.63 30.57 503.58 30.57"/><path class="cls-1" d="M547.37,27.5c-3.27,2.46-7.85,3.93-13.01,3.93s-9.86-1.52-13.1-3.97c-3.97-2.99-5.98-6.92-5.98-11.74s2.05-8.68,6.06-11.71c3.32-2.5,7.94-4.01,13.02-4.01s9.69,1.51,12.97,4.01c3.97,3.03,6.02,7,6.02,11.71s-2.01,8.8-5.98,11.78m-3.56-20.21c-2.37-1.72-5.73-2.79-9.45-2.79-8.27,0-13.96,4.75-13.96,11.22s5.45,11.21,13.96,11.21,13.87-4.58,13.87-11.21c0-3.44-1.48-6.26-4.42-8.43"/><path class="cls-1" d="M47.37,51.17c0,5.85-3.77,9.08-10.81,9.08H18.92v11.3h-4.91v-29.64h23.5c6.06,0,9.86,3.64,9.86,9.25m-5.03,.08c0-3.28-2.01-4.87-6.02-4.87H18.92v9.41h17.72c3.73,0,5.69-1.59,5.69-4.54"/><path class="cls-1" d="M79.78,71.55l-8.02-11.3h-14.98v11.3h-4.91v-29.64h23.37c6.22,0,9.99,3.6,9.99,9.33,0,5.24-3.27,8.02-7.69,8.76l7.94,11.54h-5.69Zm.41-20.31c0-3.28-2-4.87-6.14-4.87h-17.27v9.41h17.72c3.69,0,5.69-1.64,5.69-4.54"/><polygon class="cls-1" points="91.24 71.55 91.24 41.92 121.12 41.92 121.12 46.37 96.15 46.37 96.15 53.95 113.51 53.95 113.51 58.41 96.15 58.41 96.15 67.09 122.27 67.09 122.27 71.55 91.24 71.55"/><polygon class="cls-1" points="163.74 71.55 163.74 47.32 163.61 47.32 148.22 66.64 132.96 47.32 132.83 47.32 132.83 71.55 127.92 71.55 127.92 41.92 134.02 41.92 148.26 59.84 162.55 41.92 168.65 41.92 168.65 71.55 163.74 71.55"/><rect class="cls-1" x="175.85" y="41.92" width="4.91" height="29.63"/><path class="cls-1" d="M204.58,72.45c-10.4,0-16.83-4.46-16.83-10.48v-20.05h4.91v18.87c0,4.58,4.09,7.16,11.91,7.16s11.83-2.58,11.83-7.16v-18.87h4.91v20.05c0,6.06-6.38,10.48-16.74,10.48"/><polygon class="cls-1" points="264.13 71.55 264.13 47.32 264.01 47.32 248.62 66.64 233.35 47.32 233.23 47.32 233.23 71.55 228.32 71.55 228.32 41.92 234.42 41.92 248.66 59.84 262.95 41.92 269.05 41.92 269.05 71.55 264.13 71.55"/><path class="cls-1" d="M320.29,68.48c-3.28,2.46-7.87,3.93-13.03,3.93s-9.87-1.51-13.1-3.97c-3.98-2.99-5.98-6.92-5.98-11.75s2.05-8.67,6.06-11.71c3.31-2.49,7.94-4.01,13.02-4.01s9.7,1.52,12.99,4.01c3.96,3.04,6,7,6,11.71s-2,8.8-5.96,11.79m-3.58-20.22c-2.37-1.72-5.72-2.78-9.45-2.78-8.27,0-13.96,4.75-13.96,11.21s5.45,11.22,13.96,11.22,13.88-4.58,13.88-11.22c0-3.44-1.48-6.26-4.43-8.43"/><path class="cls-1" d="M348.53,72.45c-10.4,0-16.82-4.46-16.82-10.48v-20.05h4.91v18.87c0,4.58,4.1,7.16,11.91,7.16s11.83-2.58,11.83-7.16v-18.87h4.91v20.05c0,6.06-6.39,10.48-16.74,10.48"/><polygon class="cls-1" points="388.55 46.37 388.55 71.55 383.64 71.55 383.64 46.37 369.48 46.37 369.48 41.92 402.72 41.92 402.72 46.37 388.55 46.37"/><polygon class="cls-1" points="407.13 71.55 407.13 41.92 412.04 41.92 412.04 67.09 434.93 67.09 434.93 71.55 407.13 71.55"/><polygon class="cls-1" points="439.14 71.55 439.14 41.92 469.03 41.92 469.03 46.37 444.05 46.37 444.05 53.95 461.41 53.95 461.41 58.41 444.05 58.41 444.05 67.09 470.17 67.09 470.17 71.55 439.14 71.55"/><polygon class="cls-1" points="491.77 46.37 491.77 71.55 486.86 71.55 486.86 46.37 472.7 46.37 472.7 41.92 505.94 41.92 505.94 46.37 491.77 46.37"/><path class="cls-1" d="M521.12,45.51c-6.14,0-9.37,1.56-9.37,4.02,0,1.35,.86,2.26,2.58,2.87,3.23,1.14,8.11,.78,14.12,1.55,7.37,.94,10.9,3.49,10.9,8.44,0,6.22-5.65,9.86-16.17,9.86-7.53,0-13.35-1.6-17.65-4.99l2.71-3.56c4.75,2.91,9.58,4.25,14.98,4.25,7.04,0,10.81-2.04,10.81-5.23,0-4.21-5.04-4.21-13.76-4.79-9.13-.61-13.71-2.05-13.71-7.74s5.32-9,14.93-9c6.39,0,11.75,1.48,16.04,4.38l-2.98,3.32c-4.43-2.25-8.77-3.36-13.44-3.36"/><path class="cls-1" d="M546.31,44.14v-1.48h.89c.48,0,.81,.29,.81,.75,0,.44-.33,.73-.81,.73h-.89Zm1.6,2.29h.68l-1.01-1.8c.63-.12,1.02-.6,1.02-1.21,0-.71-.49-1.28-1.3-1.28h-1.59v4.29h.59v-1.76h.63l.98,1.76Zm-.85,1.72c-2.14,0-3.87-1.74-3.87-3.87s1.74-3.87,3.87-3.87,3.87,1.74,3.87,3.87-1.73,3.87-3.87,3.87m0-7.15c-1.8,0-3.27,1.47-3.27,3.28s1.47,3.27,3.27,3.27,3.28-1.47,3.28-3.27-1.47-3.28-3.28-3.28"/><polygon class="cls-1" points="114.49 97.86 114.49 88.68 114.45 88.68 108.61 96 102.82 88.68 102.78 88.68 102.78 97.86 100.91 97.86 100.91 86.63 103.23 86.63 108.63 93.43 114.04 86.63 116.36 86.63 116.36 97.86 114.49 97.86"/><rect class="cls-1" x="122.34" y="86.63" width="1.86" height="11.23"/><polygon class="cls-1" points="135.59 88.32 135.59 97.86 133.73 97.86 133.73 88.32 128.37 88.32 128.37 86.63 140.97 86.63 140.97 88.32 135.59 88.32"/><path class="cls-1" d="M149.22,88c-2.33,0-3.55,.58-3.55,1.52,0,.51,.32,.85,.98,1.08,1.23,.44,3.07,.3,5.35,.59,2.79,.36,4.13,1.31,4.13,3.19,0,2.36-2.14,3.74-6.13,3.74-2.86,0-5.06-.6-6.69-1.89l1.03-1.35c1.8,1.1,3.63,1.61,5.67,1.61,2.67,0,4.1-.77,4.1-1.98,0-1.6-1.91-1.6-5.21-1.82-3.46-.23-5.2-.77-5.2-2.93s2.02-3.41,5.67-3.41c2.41,0,4.45,.56,6.08,1.66l-1.13,1.25c-1.67-.85-3.32-1.27-5.09-1.27"/><path class="cls-1" d="M167.56,98.2c-3.94,0-6.38-1.69-6.38-3.97v-7.6h1.87v7.15c0,1.74,1.55,2.71,4.51,2.71s4.48-.98,4.48-2.71v-7.15h1.86v7.6c0,2.29-2.42,3.97-6.34,3.97"/><path class="cls-1" d="M193.01,94.91c0,1.92-1.44,2.95-4.26,2.95h-8.95v-11.23h9.07c2.32,0,3.66,1.23,3.66,3.07,0,1.05-.44,1.8-1.46,2.37,1.27,.43,1.93,1.4,1.93,2.84m-2.28-5.1c0-.91-.67-1.49-1.74-1.49h-7.32v3.01h7.25c1.04,0,1.82-.68,1.82-1.51m.37,4.83c0-1.11-.65-1.62-2.04-1.62h-7.4v3.15h7.11c1.58,0,2.33-.45,2.33-1.53"/><rect class="cls-1" x="198.24" y="86.63" width="1.86" height="11.23"/><path class="cls-1" d="M210.83,88c-2.33,0-3.55,.58-3.55,1.52,0,.51,.33,.85,.98,1.08,1.22,.44,3.07,.3,5.35,.59,2.79,.36,4.13,1.31,4.13,3.19,0,2.36-2.14,3.74-6.13,3.74-2.85,0-5.05-.6-6.68-1.89l1.02-1.35c1.8,1.1,3.63,1.61,5.67,1.61,2.67,0,4.09-.77,4.09-1.98,0-1.6-1.9-1.6-5.21-1.82-3.46-.23-5.2-.77-5.2-2.93s2.02-3.41,5.67-3.41c2.42,0,4.45,.56,6.08,1.66l-1.13,1.25c-1.68-.85-3.32-1.27-5.09-1.27"/><polygon class="cls-1" points="233.74 97.86 233.74 92.88 224.74 92.88 224.74 97.86 222.88 97.86 222.88 86.63 224.74 86.63 224.74 91.19 233.74 91.19 233.74 86.63 235.6 86.63 235.6 97.86 233.74 97.86"/><rect class="cls-1" x="241.58" y="86.63" width="1.87" height="11.23"/><polygon class="cls-1" points="256.29 97.86 256.29 86.63 267.61 86.63 267.61 88.32 258.14 88.32 258.14 91.19 264.72 91.19 264.72 92.88 258.14 92.88 258.14 96.17 268.04 96.17 268.04 97.86 256.29 97.86"/><path class="cls-1" d="M277.3,88c-2.33,0-3.55,.58-3.55,1.52,0,.51,.32,.85,.98,1.08,1.22,.44,3.07,.3,5.34,.59,2.8,.36,4.13,1.31,4.13,3.19,0,2.36-2.15,3.74-6.13,3.74-2.86,0-5.06-.6-6.69-1.89l1.02-1.35c1.8,1.1,3.63,1.61,5.68,1.61,2.67,0,4.1-.77,4.1-1.98,0-1.6-1.91-1.6-5.21-1.82-3.46-.23-5.19-.77-5.19-2.93s2.02-3.41,5.66-3.41c2.42,0,4.45,.56,6.09,1.66l-1.15,1.25c-1.67-.85-3.31-1.27-5.08-1.27"/><polygon class="cls-1" points="294.03 88.32 294.03 97.86 292.18 97.86 292.18 88.32 286.8 88.32 286.8 86.63 299.4 86.63 299.4 88.32 294.03 88.32"/><path class="cls-1" d="M312.5,97.86l-1.31-2.52h-7.55l-1.31,2.52h-2.04l5.95-11.23h2.34l5.95,11.23h-2.03Zm-5.08-9.64l-2.86,5.43h5.72l-2.86-5.43Z"/><polygon class="cls-1" points="322.67 88.32 322.67 97.86 320.81 97.86 320.81 88.32 315.44 88.32 315.44 86.63 328.03 86.63 328.03 88.32 322.67 88.32"/><polygon class="cls-1" points="332.2 97.86 332.2 86.63 343.53 86.63 343.53 88.32 334.06 88.32 334.06 91.19 340.65 91.19 340.65 92.88 334.06 92.88 334.06 96.17 343.97 96.17 343.97 97.86 332.2 97.86"/><rect class="cls-1" x="356.4" y="92.06" width="2.41" height="1.69"/><path class="cls-1" d="M376.94,88c-2.33,0-3.56,.58-3.56,1.52,0,.51,.32,.85,.98,1.08,1.23,.44,3.07,.3,5.35,.59,2.8,.36,4.13,1.31,4.13,3.19,0,2.36-2.15,3.74-6.12,3.74-2.86,0-5.06-.6-6.69-1.89l1.02-1.35c1.8,1.1,3.64,1.61,5.68,1.61,2.67,0,4.09-.77,4.09-1.98,0-1.6-1.9-1.6-5.2-1.82-3.46-.23-5.2-.77-5.2-2.93s2.03-3.41,5.67-3.41c2.42,0,4.44,.56,6.08,1.66l-1.13,1.25c-1.68-.85-3.32-1.27-5.08-1.27"/><rect class="cls-1" x="388.98" y="86.63" width="1.86" height="11.23"/><polygon class="cls-1" points="410.39 97.86 410.39 88.68 410.34 88.68 404.51 96 398.73 88.68 398.68 88.68 398.68 97.86 396.81 97.86 396.81 86.63 399.12 86.63 404.52 93.43 409.94 86.63 412.25 86.63 412.25 97.86 410.39 97.86"/><path class="cls-1" d="M429.81,96.69c-1.24,.94-2.98,1.49-4.94,1.49s-3.74-.57-4.96-1.5c-1.51-1.13-2.27-2.63-2.27-4.45s.78-3.29,2.3-4.44c1.26-.94,3.01-1.52,4.93-1.52s3.68,.58,4.92,1.52c1.51,1.15,2.28,2.66,2.28,4.44s-.77,3.33-2.27,4.46m-1.35-7.66c-.91-.65-2.18-1.05-3.59-1.05-3.13,0-5.29,1.81-5.29,4.25s2.06,4.25,5.29,4.25,5.26-1.74,5.26-4.25c0-1.31-.56-2.37-1.67-3.2"/><polygon class="cls-1" points="447.91 97.86 439.33 88.65 439.33 97.86 437.47 97.86 437.47 86.63 439.78 86.63 448.36 95.84 448.36 86.63 450.22 86.63 450.22 97.86 447.91 97.86"/></svg>