<?xml version="1.0" encoding="utf-8"?>
<!-- Generator: Adobe Illustrator 23.1.0, SVG Export Plug-In . SVG Version: 6.00 Build 0)  -->
<svg version="1.1" id="Layer_1" xmlns="http://www.w3.org/2000/svg" xmlns:xlink="http://www.w3.org/1999/xlink" x="0px" y="0px"
	 viewBox="0 0 538 99" style="enable-background:new 0 0 538 99;" xml:space="preserve">
<g>
	<g>
		<path d="M33.4,51.9c0,5.9-3.8,9.1-10.8,9.1H4.9v11.3H0V42.6h23.5C29.6,42.7,33.4,46.3,33.4,51.9z M28.3,52c0-3.3-2-4.9-6-4.9H4.9
			v9.4h17.7C26.4,56.6,28.3,55,28.3,52z"/>
		<path d="M65.8,72.4l-8-11.3h-15v11.3h-4.9V42.7h23.4c6.2,0,10,3.6,10,9.3c0,5.2-3.3,8-7.7,8.8l8,11.6L65.8,72.4L65.8,72.4z
			 M66.2,52c0-3.3-2-4.9-6.1-4.9H42.8v9.4h17.7C64.2,56.6,66.2,54.9,66.2,52z"/>
	</g>
	<g>
		<path d="M77.3,72.4V42.7h29.9v4.5h-25v7.6h17.4v4.5H82.2V68h26.1v4.5h-31V72.4z"/>
	</g>
	<g>
		<path d="M149.9,72.4V48.1h-0.1l-15.4,19.3l-15.3-19.3H119v24.3h-5V42.7h6.1l14.3,18l14.3-18h6.1v29.7H149.9z"/>
		<path d="M162,72.4V42.7h4.9v29.7H162z"/>
		<path d="M190.8,73.3c-10.4,0-16.8-4.5-16.8-10.5V42.7h4.9v18.9c0,4.6,4.1,7.2,11.9,7.2s11.8-2.6,11.8-7.2V42.7h4.9v20.1
			C207.5,68.8,201.1,73.3,190.8,73.3z"/>
		<path d="M250.4,72.4V48.1h-0.1l-15.4,19.3l-15.3-19.3h-0.1v24.3h-4.9V42.7h6.1l14.3,18l14.3-18h6.1v29.7H250.4z"/>
	</g>
	<g>
		<path d="M306.6,69.3c-3.3,2.5-7.9,3.9-13,3.9s-9.9-1.5-13.1-4c-4-3-6-6.9-6-11.8c0-4.8,2-8.7,6.1-11.7c3.3-2.5,8-4,13-4
			s9.7,1.5,13,4c4,3,6,7,6,11.7C312.6,62.3,310.6,66.3,306.6,69.3z M303,49c-2.4-1.7-5.7-2.8-9.5-2.8c-8.3,0-14,4.8-14,11.2
			c0,6.7,5.5,11.2,14,11.2s13.9-4.6,13.9-11.2C307.5,54,306,51.2,303,49z"/>
	</g>
	<g>
		<path d="M334.9,73.3c-10.4,0-16.8-4.5-16.8-10.5V42.7h4.9v18.9c0,4.6,4.1,7.2,11.9,7.2s11.8-2.6,11.8-7.2V42.7h4.9v20.1
			C351.7,68.8,345.3,73.3,334.9,73.3z"/>
		<path d="M375,47.1v25.2h-4.9V47.1h-14.2v-4.5h33.3v4.5H375z"/>
		<path d="M393.6,72.4V42.7h4.9v25.2h22.9v4.5H393.6z"/>
	</g>
	<g>
		<path d="M425.6,72.4V42.7h29.9v4.5h-25v7.6h17.4v4.5h-17.4V68h26.1v4.5h-31V72.4z"/>
		<path d="M478.3,47.1v25.2h-4.9V47.1h-14.2v-4.5h33.3v4.5H478.3z"/>
	</g>
	<g>
		<path d="M507.7,46.3c-6.1,0-9.4,1.6-9.4,4c0,1.4,0.9,2.3,2.6,2.9c3.2,1.1,8.1,0.8,14.1,1.6c7.4,0.9,10.9,3.5,10.9,8.4
			c0,6.2-5.7,9.9-16.2,9.9c-7.5,0-13.4-1.6-17.7-5l2.7-3.6c4.8,2.9,9.6,4.3,15,4.3c7,0,10.8-2.1,10.8-5.2c0-4.2-5-4.2-13.8-4.8
			c-9.1-0.6-13.7-2-13.7-7.7c0-5.5,5.3-9,15-9c6.4,0,11.8,1.5,16.1,4.4l-3,3.3C516.7,47.4,512.4,46.3,507.7,46.3z"/>
	</g>
	<g>
		<path d="M197.5,5.3c-6.1,0-9.4,1.6-9.4,4c0,1.4,0.9,2.3,2.6,2.9c3.2,1.1,8.1,0.8,14.1,1.6c7.4,0.9,10.9,3.5,10.9,8.4
			c0,6.2-5.7,9.9-16.2,9.9c-7.5,0-13.4-1.6-17.7-5l2.7-3.6c4.8,2.9,9.6,4.3,15,4.3c7,0,10.8-2,10.8-5.2c0-4.2-5-4.2-13.8-4.8
			c-9.1-0.6-13.7-2-13.7-7.7c0-5.5,5.3-9,15-9c6.4,0,11.8,1.5,16.1,4.4l-3,3.3C206.5,6.4,202.1,5.3,197.5,5.3z"/>
		<path d="M250,31.3l-3.4-6.6h-20l-3.4,6.6h-5.4l15.7-29.7h6.2l15.7,29.7H250z M236.6,5.9L229,20.2h15.1L236.6,5.9z"/>
	</g>
	<g>
		<path d="M288,31.3L265.3,7v24.3h-4.9V1.6h6.1l22.7,24.3V1.6h4.9v29.7H288z"/>
		<path d="M334.3,28.3c-3.3,2.5-7.9,3.9-13,3.9s-9.9-1.5-13.1-4c-4-3-6-6.9-6-11.8c0-4.8,2-8.7,6.1-11.7c3.3-2.5,8-4,13-4
			s9.7,1.5,13,4c4,3,6,7,6,11.7C340.3,21.3,338.3,25.3,334.3,28.3z M330.8,8c-2.4-1.7-5.7-2.8-9.5-2.8c-8.3,0-14,4.8-14,11.2
			c0,6.7,5.5,11.2,14,11.2s13.9-4.6,13.9-11.2C335.2,13,333.7,10.2,330.8,8z"/>
	</g>
	<g>
		<path d="M532.9,44.9v-1.5h0.9c0.5,0,0.8,0.3,0.8,0.7c0,0.4-0.3,0.7-0.8,0.7L532.9,44.9L532.9,44.9z M534.5,47.2h0.7l-1-1.8
			c0.6-0.1,1-0.6,1-1.2c0-0.7-0.5-1.3-1.3-1.3h-1.6v4.3h0.6v-1.8h0.6L534.5,47.2L534.5,47.2z M533.7,48.9c-2.1,0-3.9-1.7-3.9-3.9
			c0-2.1,1.7-3.9,3.9-3.9c2.1,0,3.9,1.7,3.9,3.9C537.6,47.2,535.8,48.9,533.7,48.9L533.7,48.9z M533.7,41.8c-1.8,0-3.3,1.5-3.3,3.3
			s1.5,3.3,3.3,3.3s3.3-1.5,3.3-3.3C537,43.2,535.5,41.8,533.7,41.8L533.7,41.8z"/>
	</g>
	<g>
		<path d="M100.6,98.7v-9.2l0,0l-5.8,7.3L89,89.5l0,0v9.2h-2V87.5h2.3l5.4,6.8l5.4-6.8h2.3v11.2H100.6z"/>
		<path d="M108.4,98.7V87.5h1.9v11.2H108.4z"/>
	</g>
	<g>
		<path d="M121.7,89.1v9.6h-1.9v-9.6h-5.4v-1.7H127v1.7H121.7z"/>
	</g>
	<g>
		<path d="M135.3,88.8c-2.3,0-3.6,0.6-3.6,1.5c0,0.5,0.3,0.9,1,1.1c1.2,0.4,3.1,0.3,5.4,0.6c2.8,0.4,4.1,1.3,4.1,3.2
			c0,2.4-2.1,3.7-6.1,3.7c-2.9,0-5.1-0.6-6.7-1.9l1-1.4c1.8,1.1,3.6,1.6,5.7,1.6c2.7,0,4.1-0.8,4.1-2c0-1.6-1.9-1.6-5.2-1.8
			c-3.5-0.2-5.2-0.8-5.2-2.9s2-3.4,5.7-3.4c2.4,0,4.5,0.6,6.1,1.7l-1.1,1.3C138.8,89.2,137.1,88.8,135.3,88.8z"/>
		<path d="M153.7,99c-3.9,0-6.4-1.7-6.4-4v-7.6h1.9v7.2c0,1.7,1.6,2.7,4.5,2.7c3,0,4.5-1,4.5-2.7v-7.2h1.9V95
			C160.1,97.4,157.6,99,153.7,99z"/>
		<path d="M179.2,95.7c0,1.9-1.4,3-4.3,3h-9V87.5h9.1c2.3,0,3.7,1.2,3.7,3.1c0,1.1-0.5,1.8-1.5,2.4
			C178.5,93.3,179.2,94.3,179.2,95.7z M176.9,90.6c0-0.9-0.7-1.5-1.7-1.5h-7.3v3h7.3C176.1,92.2,176.9,91.5,176.9,90.6z M177.3,95.5
			c0-1.1-0.7-1.6-2-1.6h-7.4v3.2h7.1C176.5,97,177.3,96.6,177.3,95.5z"/>
	</g>
	<g>
		<path d="M184.4,98.7V87.5h1.9v11.2H184.4z"/>
		<path d="M197,88.8c-2.3,0-3.6,0.6-3.6,1.5c0,0.5,0.3,0.9,1,1.1c1.2,0.4,3.1,0.3,5.4,0.6c2.8,0.4,4.1,1.3,4.1,3.2
			c0,2.4-2.1,3.7-6.1,3.7c-2.9,0-5.1-0.6-6.7-1.9l1-1.4c1.8,1.1,3.6,1.6,5.7,1.6c2.7,0,4.1-0.8,4.1-2c0-1.6-1.9-1.6-5.2-1.8
			c-3.5-0.2-5.2-0.8-5.2-2.9s2-3.4,5.7-3.4c2.4,0,4.5,0.6,6.1,1.7l-1.1,1.3C200.4,89.2,198.8,88.8,197,88.8z"/>
		<path d="M220,98.7v-5h-9v5h-1.9V87.5h1.9v4.6h9v-4.6h1.9v11.2H220z"/>
		<path d="M227.8,98.7V87.5h1.9v11.2H227.8z"/>
	</g>
	<g>
		<path d="M242.5,98.7V87.5h11.3v1.7h-9.5v2.9h6.6v1.7h-6.6v3.3h9.9v1.7h-11.7V98.7z"/>
		<path d="M263.6,88.8c-2.3,0-3.6,0.6-3.6,1.5c0,0.5,0.3,0.9,1,1.1c1.2,0.4,3.1,0.3,5.4,0.6c2.8,0.4,4.1,1.3,4.1,3.2
			c0,2.4-2.1,3.7-6.1,3.7c-2.9,0-5.1-0.6-6.7-1.9l1-1.4c1.8,1.1,3.6,1.6,5.7,1.6c2.7,0,4.1-0.8,4.1-2c0-1.6-1.9-1.6-5.2-1.8
			c-3.5-0.2-5.2-0.8-5.2-2.9s2-3.4,5.7-3.4c2.4,0,4.5,0.6,6.1,1.7l-1.1,1.3C267,89.2,265.3,88.8,263.6,88.8z"/>
	</g>
	<g>
		<path d="M280.3,89.1v9.6h-1.9v-9.6H273v-1.7h12.6v1.7H280.3z"/>
		<path d="M298.8,98.7l-1.3-2.5H290l-1.3,2.5h-2l5.9-11.2h2.3l5.9,11.2H298.8z M293.7,89.1l-2.9,5.4h5.7L293.7,89.1z"/>
		<path d="M309,89.1v9.6h-1.9v-9.6h-5.4v-1.7h12.6v1.7H309z"/>
	</g>
	<g>
		<path d="M318.6,98.7V87.5h11.3v1.7h-9.5v2.9h6.6v1.7h-6.6v3.3h9.9v1.7h-11.7V98.7z"/>
		<path d="M342.8,94.6v-1.7h2.4v1.7H342.8z"/>
		<path d="M363.3,88.8c-2.3,0-3.6,0.6-3.6,1.5c0,0.5,0.3,0.9,1,1.1c1.2,0.4,3.1,0.3,5.4,0.6c2.8,0.4,4.1,1.3,4.1,3.2
			c0,2.4-2.1,3.7-6.1,3.7c-2.9,0-5.1-0.6-6.7-1.9l1-1.4c1.8,1.1,3.6,1.6,5.7,1.6c2.7,0,4.1-0.8,4.1-2c0-1.6-1.9-1.6-5.2-1.8
			c-3.5-0.2-5.2-0.8-5.2-2.9s2-3.4,5.7-3.4c2.4,0,4.5,0.6,6.1,1.7l-1.1,1.3C366.8,89.2,365.1,88.8,363.3,88.8z"/>
		<path d="M375.4,98.7V87.5h1.9v11.2H375.4z"/>
		<path d="M396.8,98.7v-9.2l0,0l-5.8,7.3l-5.8-7.3l0,0v9.2h-1.9V87.5h2.3l5.4,6.8l5.4-6.8h2.3v11.2H396.8z"/>
		<path d="M416.3,97.5c-1.2,0.9-3,1.5-4.9,1.5c-2,0-3.7-0.6-5-1.5c-1.5-1.1-2.3-2.6-2.3-4.5c0-1.8,0.8-3.3,2.3-4.4
			c1.3-0.9,3-1.5,4.9-1.5s3.7,0.6,4.9,1.5c1.5,1.1,2.3,2.7,2.3,4.4C418.5,94.9,417.8,96.4,416.3,97.5z M414.9,89.9
			c-0.9-0.7-2.2-1.1-3.6-1.1c-3.1,0-5.3,1.8-5.3,4.3s2.1,4.3,5.3,4.3s5.3-1.7,5.3-4.3C416.6,91.8,416,90.7,414.9,89.9z"/>
		<path d="M434.4,98.7l-8.6-9.2v9.2h-1.9V87.5h2.3l8.6,9.2v-9.2h1.9v11.2H434.4z"/>
	</g>
</g>
</svg>
