<?xml version="1.0" encoding="utf-8"?>
<!-- Generator: Adobe Illustrator 23.1.0, SVG Export Plug-In . SVG Version: 6.00 Build 0)  -->
<svg version="1.1" id="Layer_1" xmlns="http://www.w3.org/2000/svg" xmlns:xlink="http://www.w3.org/1999/xlink" x="0px" y="0px"
	 viewBox="0 0 538 98" style="enable-background:new 0 0 538 98;" xml:space="preserve">
<style type="text/css">
	.st0{fill:#FFFFFF;}
</style>
<g>
	<g>
		<path class="st0" d="M33.4,50.9c0,5.9-3.8,9.1-10.8,9.1H4.9v11.3H0V41.6h23.5C29.6,41.7,33.4,45.3,33.4,50.9z M28.3,51
			c0-3.3-2-4.9-6-4.9H4.9v9.4h17.7C26.4,55.6,28.3,54,28.3,51z"/>
		<path class="st0" d="M65.8,71.4l-8-11.3h-15v11.3h-4.9V41.7h23.4c6.2,0,10,3.6,10,9.3c0,5.2-3.3,8-7.7,8.8l8,11.6L65.8,71.4
			L65.8,71.4z M66.2,51c0-3.3-2-4.9-6.1-4.9H42.8v9.4h17.7C64.2,55.6,66.2,53.9,66.2,51z"/>
	</g>
	<g>
		<path class="st0" d="M77.3,71.4V41.7h29.9v4.5h-25v7.6h17.4v4.5H82.2V67h26.1v4.5h-31V71.4z"/>
	</g>
	<g>
		<path class="st0" d="M149.9,71.4V47.1h-0.1l-15.4,19.3l-15.3-19.3H119v24.3h-5V41.7h6.1l14.3,18l14.3-18h6.1v29.7H149.9z"/>
		<path class="st0" d="M162,71.4V41.7h4.9v29.7H162z"/>
		<path class="st0" d="M190.8,72.3c-10.4,0-16.8-4.5-16.8-10.5V41.7h4.9v18.9c0,4.6,4.1,7.2,11.9,7.2s11.8-2.6,11.8-7.2V41.7h4.9
			v20.1C207.5,67.8,201.1,72.3,190.8,72.3z"/>
		<path class="st0" d="M250.4,71.4V47.1h-0.1l-15.4,19.3l-15.3-19.3h-0.1v24.3h-4.9V41.7h6.1l14.3,18l14.3-18h6.1v29.7H250.4z"/>
	</g>
	<g>
		<path class="st0" d="M306.6,68.3c-3.3,2.5-7.9,3.9-13,3.9s-9.9-1.5-13.1-4c-4-3-6-6.9-6-11.8c0-4.8,2-8.7,6.1-11.7
			c3.3-2.5,8-4,13-4s9.7,1.5,13,4c4,3,6,7,6,11.7C312.6,61.3,310.6,65.3,306.6,68.3z M303,48c-2.4-1.7-5.7-2.8-9.5-2.8
			c-8.3,0-14,4.8-14,11.2c0,6.7,5.5,11.2,14,11.2s13.9-4.6,13.9-11.2C307.5,53,306,50.2,303,48z"/>
	</g>
	<g>
		<path class="st0" d="M334.9,72.3c-10.4,0-16.8-4.5-16.8-10.5V41.7h4.9v18.9c0,4.6,4.1,7.2,11.9,7.2s11.8-2.6,11.8-7.2V41.7h4.9
			v20.1C351.7,67.8,345.3,72.3,334.9,72.3z"/>
		<path class="st0" d="M375,46.1v25.2h-4.9V46.1h-14.2v-4.5h33.3v4.5H375z"/>
		<path class="st0" d="M393.6,71.4V41.7h4.9v25.2h22.9v4.5H393.6z"/>
	</g>
	<g>
		<path class="st0" d="M425.6,71.4V41.7h29.9v4.5h-25v7.6h17.4v4.5h-17.4V67h26.1v4.5h-31V71.4z"/>
		<path class="st0" d="M478.3,46.1v25.2h-4.9V46.1h-14.2v-4.5h33.3v4.5H478.3z"/>
	</g>
	<g>
		<path class="st0" d="M507.7,45.3c-6.1,0-9.4,1.6-9.4,4c0,1.4,0.9,2.3,2.6,2.9c3.2,1.1,8.1,0.8,14.1,1.6c7.4,0.9,10.9,3.5,10.9,8.4
			c0,6.2-5.7,9.9-16.2,9.9c-7.5,0-13.4-1.6-17.7-5l2.7-3.6c4.8,2.9,9.6,4.3,15,4.3c7,0,10.8-2.1,10.8-5.2c0-4.2-5-4.2-13.8-4.8
			c-9.1-0.6-13.7-2-13.7-7.7c0-5.5,5.3-9,15-9c6.4,0,11.8,1.5,16.1,4.4l-3,3.3C516.7,46.4,512.4,45.3,507.7,45.3z"/>
	</g>
	<g>
		<path class="st0" d="M203.2,5.1v25.2h-4.9V5.1h-14.2V0.6h33.3v4.5L203.2,5.1L203.2,5.1z"/>
		<path class="st0" d="M250.5,27.3c-3.3,2.5-7.9,3.9-13,3.9s-9.9-1.5-13.1-4c-4-3-6-6.9-6-11.8c0-4.8,2-8.7,6.1-11.7
			c3.3-2.5,8-4,13-4s9.7,1.5,13,4c4,3,6,7,6,11.7C256.5,20.3,254.5,24.3,250.5,27.3z M246.9,7c-2.4-1.7-5.7-2.8-9.5-2.8
			c-8.3,0-14,4.8-14,11.2c0,6.7,5.5,11.2,14,11.2s13.9-4.6,13.9-11.2C251.4,12,249.9,9.2,246.9,7z"/>
	</g>
	<g>
		<path class="st0" d="M276.5,4.3c-6.1,0-9.4,1.6-9.4,4c0,1.4,0.9,2.3,2.6,2.9c3.2,1.1,8.1,0.8,14.1,1.6c7.4,0.9,10.9,3.5,10.9,8.4
			c0,6.2-5.7,9.9-16.2,9.9c-7.5,0-13.4-1.6-17.7-5l2.7-3.6c4.8,2.9,9.6,4.3,15,4.3c7,0,10.8-2,10.8-5.2c0-4.2-5-4.2-13.8-4.8
			c-9.1-0.6-13.7-2-13.7-7.7c0-5.5,5.3-9,15-9c6.4,0,11.8,1.5,16.1,4.4l-3,3.3C285.6,5.4,281.2,4.3,276.5,4.3z"/>
		<path class="st0" d="M318.9,31.2c-10.4,0-16.8-4.5-16.8-10.5V0.6h4.9v18.9c0,4.6,4.1,7.2,11.9,7.2s11.8-2.6,11.8-7.2V0.6h4.9v20.1
			C335.6,26.8,329.2,31.2,318.9,31.2z"/>
	</g>
	<g>
		<path class="st0" d="M532.9,43.9v-1.5h0.9c0.5,0,0.8,0.3,0.8,0.7c0,0.4-0.3,0.7-0.8,0.7L532.9,43.9L532.9,43.9z M534.5,46.2h0.7
			l-1-1.8c0.6-0.1,1-0.6,1-1.2c0-0.7-0.5-1.3-1.3-1.3h-1.6v4.3h0.6v-1.8h0.6L534.5,46.2L534.5,46.2z M533.7,47.9
			c-2.1,0-3.9-1.7-3.9-3.9c0-2.1,1.7-3.9,3.9-3.9c2.1,0,3.9,1.7,3.9,3.9C537.6,46.2,535.8,47.9,533.7,47.9L533.7,47.9z M533.7,40.8
			c-1.8,0-3.3,1.5-3.3,3.3s1.5,3.3,3.3,3.3s3.3-1.5,3.3-3.3C537,42.2,535.5,40.8,533.7,40.8L533.7,40.8z"/>
	</g>
	<g>
		<path class="st0" d="M100.6,97.7v-9.2l0,0l-5.8,7.3L89,88.5l0,0v9.2h-2V86.5h2.3l5.4,6.8l5.4-6.8h2.3v11.2H100.6z"/>
		<path class="st0" d="M108.4,97.7V86.5h1.9v11.2H108.4z"/>
	</g>
	<g>
		<path class="st0" d="M121.7,88.1v9.6h-1.9v-9.6h-5.4v-1.7H127v1.7H121.7z"/>
	</g>
	<g>
		<path class="st0" d="M135.3,87.8c-2.3,0-3.6,0.6-3.6,1.5c0,0.5,0.3,0.9,1,1.1c1.2,0.4,3.1,0.3,5.4,0.6c2.8,0.4,4.1,1.3,4.1,3.2
			c0,2.4-2.1,3.7-6.1,3.7c-2.9,0-5.1-0.6-6.7-1.9l1-1.4c1.8,1.1,3.6,1.6,5.7,1.6c2.7,0,4.1-0.8,4.1-2c0-1.6-1.9-1.6-5.2-1.8
			c-3.5-0.2-5.2-0.8-5.2-2.9s2-3.4,5.7-3.4c2.4,0,4.5,0.6,6.1,1.7l-1.1,1.3C138.8,88.2,137.1,87.8,135.3,87.8z"/>
		<path class="st0" d="M153.7,98c-3.9,0-6.4-1.7-6.4-4v-7.6h1.9v7.2c0,1.7,1.6,2.7,4.5,2.7c3,0,4.5-1,4.5-2.7v-7.2h1.9V94
			C160.1,96.4,157.6,98,153.7,98z"/>
		<path class="st0" d="M179.2,94.7c0,1.9-1.4,3-4.3,3h-9V86.5h9.1c2.3,0,3.7,1.2,3.7,3.1c0,1.1-0.5,1.8-1.5,2.4
			C178.5,92.3,179.2,93.3,179.2,94.7z M176.9,89.6c0-0.9-0.7-1.5-1.7-1.5h-7.3v3h7.3C176.1,91.2,176.9,90.5,176.9,89.6z M177.3,94.5
			c0-1.1-0.7-1.6-2-1.6h-7.4v3.2h7.1C176.5,96,177.3,95.6,177.3,94.5z"/>
	</g>
	<g>
		<path class="st0" d="M184.4,97.7V86.5h1.9v11.2H184.4z"/>
		<path class="st0" d="M197,87.8c-2.3,0-3.6,0.6-3.6,1.5c0,0.5,0.3,0.9,1,1.1c1.2,0.4,3.1,0.3,5.4,0.6c2.8,0.4,4.1,1.3,4.1,3.2
			c0,2.4-2.1,3.7-6.1,3.7c-2.9,0-5.1-0.6-6.7-1.9l1-1.4c1.8,1.1,3.6,1.6,5.7,1.6c2.7,0,4.1-0.8,4.1-2c0-1.6-1.9-1.6-5.2-1.8
			c-3.5-0.2-5.2-0.8-5.2-2.9s2-3.4,5.7-3.4c2.4,0,4.5,0.6,6.1,1.7l-1.1,1.3C200.4,88.2,198.8,87.8,197,87.8z"/>
		<path class="st0" d="M220,97.7v-5h-9v5h-1.9V86.5h1.9v4.6h9v-4.6h1.9v11.2H220z"/>
		<path class="st0" d="M227.8,97.7V86.5h1.9v11.2H227.8z"/>
	</g>
	<g>
		<path class="st0" d="M242.5,97.7V86.5h11.3v1.7h-9.5v2.9h6.6v1.7h-6.6v3.3h9.9v1.7h-11.7V97.7z"/>
		<path class="st0" d="M263.6,87.8c-2.3,0-3.6,0.6-3.6,1.5c0,0.5,0.3,0.9,1,1.1c1.2,0.4,3.1,0.3,5.4,0.6c2.8,0.4,4.1,1.3,4.1,3.2
			c0,2.4-2.1,3.7-6.1,3.7c-2.9,0-5.1-0.6-6.7-1.9l1-1.4c1.8,1.1,3.6,1.6,5.7,1.6c2.7,0,4.1-0.8,4.1-2c0-1.6-1.9-1.6-5.2-1.8
			c-3.5-0.2-5.2-0.8-5.2-2.9s2-3.4,5.7-3.4c2.4,0,4.5,0.6,6.1,1.7l-1.1,1.3C267,88.2,265.3,87.8,263.6,87.8z"/>
	</g>
	<g>
		<path class="st0" d="M280.3,88.1v9.6h-1.9v-9.6H273v-1.7h12.6v1.7H280.3z"/>
		<path class="st0" d="M298.8,97.7l-1.3-2.5H290l-1.3,2.5h-2l5.9-11.2h2.3l5.9,11.2H298.8z M293.7,88.1l-2.9,5.4h5.7L293.7,88.1z"/>
		<path class="st0" d="M309,88.1v9.6h-1.9v-9.6h-5.4v-1.7h12.6v1.7H309z"/>
	</g>
	<g>
		<path class="st0" d="M318.6,97.7V86.5h11.3v1.7h-9.5v2.9h6.6v1.7h-6.6v3.3h9.9v1.7h-11.7V97.7z"/>
		<path class="st0" d="M342.8,93.6v-1.7h2.4v1.7H342.8z"/>
		<path class="st0" d="M363.3,87.8c-2.3,0-3.6,0.6-3.6,1.5c0,0.5,0.3,0.9,1,1.1c1.2,0.4,3.1,0.3,5.4,0.6c2.8,0.4,4.1,1.3,4.1,3.2
			c0,2.4-2.1,3.7-6.1,3.7c-2.9,0-5.1-0.6-6.7-1.9l1-1.4c1.8,1.1,3.6,1.6,5.7,1.6c2.7,0,4.1-0.8,4.1-2c0-1.6-1.9-1.6-5.2-1.8
			c-3.5-0.2-5.2-0.8-5.2-2.9s2-3.4,5.7-3.4c2.4,0,4.5,0.6,6.1,1.7l-1.1,1.3C366.8,88.2,365.1,87.8,363.3,87.8z"/>
		<path class="st0" d="M375.4,97.7V86.5h1.9v11.2H375.4z"/>
		<path class="st0" d="M396.8,97.7v-9.2l0,0l-5.8,7.3l-5.8-7.3l0,0v9.2h-1.9V86.5h2.3l5.4,6.8l5.4-6.8h2.3v11.2H396.8z"/>
		<path class="st0" d="M416.3,96.5c-1.2,0.9-3,1.5-4.9,1.5c-2,0-3.7-0.6-5-1.5c-1.5-1.1-2.3-2.6-2.3-4.5c0-1.8,0.8-3.3,2.3-4.4
			c1.3-0.9,3-1.5,4.9-1.5s3.7,0.6,4.9,1.5c1.5,1.1,2.3,2.7,2.3,4.4C418.5,93.9,417.8,95.4,416.3,96.5z M414.9,88.9
			c-0.9-0.7-2.2-1.1-3.6-1.1c-3.1,0-5.3,1.8-5.3,4.3s2.1,4.3,5.3,4.3s5.3-1.7,5.3-4.3C416.6,90.8,416,89.7,414.9,88.9z"/>
		<path class="st0" d="M434.4,97.7l-8.6-9.2v9.2h-1.9V86.5h2.3l8.6,9.2v-9.2h1.9v11.2H434.4z"/>
	</g>
</g>
</svg>
