<?xml version="1.0" encoding="UTF-8"?>
<svg id="a" data-name="レイヤー 1" xmlns="http://www.w3.org/2000/svg" viewBox="0 0 579.27 191.99">
  <defs>
    <style>
      .b {
        fill: #070001;
      }

      .c {
        fill: none;
        stroke: #231815;
        stroke-linecap: round;
        stroke-linejoin: round;
        stroke-width: 10px;
      }
    </style>
  </defs>
  <path class="b" d="M579.27,191.99H0V0H579.27V191.99ZM1,190.99H578.27V1H1V190.99Z"/>
  <path class="c" d="M10.5,95.81c2.34,.65,4.24,.93,10.4-1.76,8.12-3.54,13.35-12.51,13.26-22.74,2.15-1.39,4.29-2.78,6.44-4.17l-4.55,58.36c-8.08-.51-16.17-1.01-24.25-1.52l9.47-23.12,29.56-10.23c1.14,2.91,2.27,5.81,3.41,8.72,6.06-11.24,12.13-22.48,18.19-33.73-.38-4.55-.76-9.09-1.14-13.64l-11.37,16.29c-1.89,4.42-3.79,8.84-5.68,13.26,.51,9.85,1.01,19.71,1.52,29.56,5.56-4.93,11.12-9.85,16.67-14.78,3.03-.38,6.06-.76,9.09-1.14l-4.93,17.05c3.66-3.54,7.33-7.07,10.99-10.61,.63,2.78,1.26,5.56,1.89,8.34,3.41-5.05,6.82-10.11,10.23-15.16,3.16,.88,6.32,1.77,9.47,2.65,2.91-.88,5.81-1.77,8.72-2.65-3.92,4.93-7.83,9.85-11.75,14.78,5.05-2.91,10.11-5.81,15.16-8.72,.76,2.27,1.52,4.55,2.27,6.82,4.55-3.28,9.09-6.57,13.64-9.85,1.89-.51,3.79-1.01,5.68-1.52-.76,3.54-1.52,7.07-2.27,10.61,4.67-3.92,9.35-7.83,14.02-11.75-1.39,15.41-2.78,30.82-4.17,46.23-5.68,6.95-11.37,13.89-17.05,20.84-2.53-2.91-5.05-5.81-7.58-8.72,6.44-11.75,12.88-23.49,19.33-35.24,7.33-6.82,14.65-13.64,21.98-20.46l10.23-3.41c-1.89,5.56-3.79,11.12-5.68,16.67,1.14,3.92,2.27,7.83,3.41,11.75-2.15,1.77-4.29,3.54-6.44,5.31-1.26-2.15-2.53-4.29-3.79-6.44,9.09-8.84,18.19-17.68,27.28-26.53,9.73-.51,19.45-1.01,29.18-1.52-2.02,5.81-4.04,11.62-6.06,17.43,3.66-3.28,7.33-6.57,10.99-9.85l2.27,7.96c2.78-4.42,5.56-8.84,8.34-13.26l10.23,.76,9.09-3.41c-2.4,3.79-4.8,7.58-7.2,11.37l2.27,3.03,9.09-10.99c2.91,.13,5.81,.25,8.72,.38,2.4-.51,4.8-1.01,7.2-1.52l-3.41,12.51c4.8-5.31,9.6-10.61,14.4-15.92-3.28-4.17-6.57-8.34-9.85-12.51h25.77c1.26-7.2,2.53-14.4,3.79-21.6-4.17,5.05-8.34,10.11-12.51,15.16-1.01,13.77-2.02,27.54-3.03,41.31l6.44,3.79c4.17-7.07,8.34-14.15,12.51-21.22-4.29-1.64-8.59-3.28-12.88-4.93,3.79-5.31,7.58-10.61,11.37-15.92,3.79,1.39,7.58,2.78,11.37,4.17l.76,13.26c3.79-6.82,7.58-13.64,11.37-20.46,.38-5.81,.76-11.62,1.14-17.43-3.03,3.16-6.06,6.32-9.09,9.47-2.78,15.03-5.56,30.06-8.34,45.09,3.79-4.17,7.58-8.34,11.37-12.51,2.02,3.66,4.04,7.33,6.06,10.99,5.18-3.41,10.36-6.82,15.54-10.23,4.8-6.19,9.6-12.38,14.4-18.57h23.12c1.26-4.67,2.53-9.35,3.79-14.02v-7.2l-15.92,42.82c1.89,4.93,3.79,9.85,5.68,14.78l13.64-19.33,.38-17.43h8.72c-.76,7.71-1.52,15.41-2.27,23.12,6.57-15.03,13.14-30.06,19.71-45.09-2.53-.76-5.05-1.52-7.58-2.27-5.05,19.83-10.11,39.66-15.16,59.49l13.64-16.29c1.77,3.54,3.54,7.07,5.31,10.61l13.26-10.23c3.54,.38,7.07,.76,10.61,1.14,1.77-2.78,3.54-5.56,5.31-8.34-3.41,5.31-6.82,10.61-10.23,15.92,6.57-2.53,13.14-5.05,19.71-7.58,5.18-6.82,10.36-13.64,15.54-20.46,13.52,.63,27.03,1.26,40.55,1.89-5.43-2.91-10.86-5.81-16.29-8.72,.88-4.55,1.77-9.09,2.65-13.64-4.93,13.77-9.85,27.54-14.78,41.31,.51,6.06,1.01,12.13,1.52,18.19,5.94-7.45,11.87-14.91,17.81-22.36,2.27-.25,4.55-.51,6.82-.76l-1.52,15.16c4.04-5.81,8.08-11.62,12.13-17.43,3.79-3.16,7.58-6.32,11.37-9.47-2.91,7.71-5.81,15.41-8.72,23.12,3.16,.63,6.32,1.26,9.47,1.89,4.42-4.17,8.84-8.34,13.26-12.51l7.2-2.65c-2.02,17.81-4.04,35.62-6.06,53.43,4.04-16.04,8.08-32.08,12.13-48.13,2.53-3.28,5.05-6.57,7.58-9.85,.88,2.4,1.77,4.8,2.65,7.2l-7.58,10.23"/>
</svg>