<?xml version="1.0" encoding="UTF-8"?><svg id="US_UK_Download_on_the" xmlns="http://www.w3.org/2000/svg" viewBox="0 0 135 40"><defs><style>.cls-1{fill:#fff;}.cls-2{fill:#a6a6a6;}</style></defs><path class="cls-2" d="M130.2,40H4.73c-2.61,0-4.73-2.13-4.73-4.73V4.73C0,2.12,2.12,0,4.73,0h125.47c2.61,0,4.8,2.12,4.8,4.73v30.54c0,2.61-2.2,4.73-4.8,4.73h0Z"/><path d="M134.03,35.27c0,2.12-1.71,3.83-3.83,3.83H4.73c-2.12,0-3.84-1.71-3.84-3.83V4.72C.89,2.61,2.61,.89,4.73,.89h125.47c2.12,0,3.83,1.72,3.83,3.84v30.54h0Z"/><g><path class="cls-1" d="M30.13,19.78c-.03-3.22,2.64-4.79,2.76-4.86-1.51-2.2-3.85-2.5-4.68-2.53-1.97-.21-3.88,1.18-4.88,1.18s-2.57-1.16-4.23-1.12c-2.14,.03-4.14,1.27-5.24,3.2-2.27,3.92-.58,9.69,1.6,12.86,1.09,1.55,2.36,3.29,4.02,3.23,1.62-.07,2.23-1.04,4.19-1.04s2.51,1.04,4.21,1c1.74-.03,2.84-1.56,3.89-3.13,1.26-1.78,1.76-3.53,1.78-3.62-.04-.01-3.39-1.29-3.42-5.15Z"/><path class="cls-1" d="M26.93,10.31c.87-1.09,1.47-2.58,1.31-4.09-1.26,.06-2.85,.88-3.76,1.94-.81,.94-1.53,2.49-1.34,3.94,1.42,.11,2.88-.72,3.79-1.79Z"/></g><g><path class="cls-1" d="M53.65,31.5h-2.27l-1.24-3.91h-4.32l-1.19,3.91h-2.21l4.28-13.31h2.65l4.31,13.31Zm-3.89-5.55l-1.12-3.48c-.12-.35-.34-1.19-.67-2.51h-.04c-.13,.57-.34,1.4-.63,2.51l-1.1,3.48h3.57Z"/><path class="cls-1" d="M64.66,26.59c0,1.63-.44,2.92-1.32,3.87-.79,.84-1.77,1.26-2.94,1.26-1.26,0-2.17-.45-2.72-1.36h-.04v5.05h-2.13v-10.35c0-1.03-.03-2.08-.08-3.16h1.88l.12,1.52h.04c.71-1.15,1.79-1.72,3.24-1.72,1.13,0,2.08,.45,2.83,1.34,.76,.9,1.14,2.07,1.14,3.54Zm-2.17,.08c0-.93-.21-1.7-.63-2.31-.46-.63-1.08-.95-1.86-.95-.53,0-1,.18-1.43,.52-.43,.35-.71,.81-.84,1.37-.07,.26-.1,.48-.1,.65v1.6c0,.7,.21,1.29,.64,1.77s.98,.72,1.67,.72c.8,0,1.43-.31,1.88-.93,.45-.62,.67-1.44,.67-2.45Z"/><path class="cls-1" d="M75.7,26.59c0,1.63-.44,2.92-1.32,3.87-.79,.84-1.77,1.26-2.94,1.26-1.26,0-2.17-.45-2.72-1.36h-.04v5.05h-2.13v-10.35c0-1.03-.03-2.08-.08-3.16h1.88l.12,1.52h.04c.71-1.15,1.79-1.72,3.24-1.72,1.13,0,2.08,.45,2.83,1.34,.76,.9,1.13,2.07,1.13,3.54Zm-2.17,.08c0-.93-.21-1.7-.63-2.31-.46-.63-1.08-.95-1.86-.95-.53,0-1,.18-1.43,.52-.43,.35-.71,.81-.84,1.37-.07,.26-.1,.48-.1,.65v1.6c0,.7,.21,1.29,.64,1.77,.43,.48,.98,.72,1.67,.72,.8,0,1.43-.31,1.88-.93,.45-.62,.67-1.44,.67-2.45Z"/><path class="cls-1" d="M88.04,27.77c0,1.13-.39,2.05-1.18,2.76-.87,.78-2.07,1.17-3.62,1.17-1.43,0-2.58-.28-3.45-.83l.49-1.78c.94,.57,1.96,.85,3.08,.85,.8,0,1.43-.18,1.88-.54,.45-.36,.67-.85,.67-1.45,0-.54-.18-1-.55-1.36-.37-.37-.98-.71-1.84-1.03-2.33-.87-3.49-2.14-3.49-3.82,0-1.09,.41-1.99,1.22-2.69,.81-.7,1.9-1.05,3.26-1.05,1.21,0,2.22,.21,3.02,.63l-.53,1.74c-.75-.41-1.6-.61-2.55-.61-.75,0-1.34,.18-1.76,.55-.36,.33-.53,.73-.53,1.2,0,.53,.2,.96,.61,1.3,.36,.32,1,.66,1.94,1.03,1.14,.46,1.99,1,2.53,1.62,.54,.62,.81,1.39,.81,2.31Z"/><path class="cls-1" d="M95.09,23.51h-2.35v4.66c0,1.18,.41,1.78,1.24,1.78,.38,0,.7-.03,.95-.1l.06,1.62c-.42,.16-.97,.24-1.66,.24-.84,0-1.5-.26-1.97-.77-.47-.51-.71-1.38-.71-2.59v-4.84h-1.4v-1.6h1.4v-1.76l2.09-.63v2.39h2.35s0,1.6,0,1.6Z"/><path class="cls-1" d="M105.69,26.63c0,1.48-.42,2.69-1.26,3.63-.88,.98-2.06,1.46-3.52,1.46s-2.53-.47-3.36-1.4-1.25-2.11-1.25-3.53,.43-2.7,1.29-3.65c.86-.95,2.02-1.42,3.48-1.42s2.54,.47,3.4,1.4c.82,.91,1.23,2.08,1.23,3.51Zm-2.21,.07c0-.89-.19-1.64-.57-2.28-.45-.77-1.09-1.15-1.91-1.15s-1.51,.38-1.96,1.15c-.38,.63-.57,1.41-.57,2.32s.19,1.64,.57,2.28c.46,.77,1.11,1.15,1.94,1.15s1.45-.39,1.91-1.17c.39-.64,.59-1.41,.59-2.3Z"/><path class="cls-1" d="M112.62,23.78c-.21-.04-.44-.06-.67-.06-.75,0-1.33,.28-1.74,.85-.36,.5-.53,1.13-.53,1.9v5.03h-2.13l.02-6.57c0-1.11-.03-2.11-.08-3.02h1.86l.08,1.84h.06c.22-.63,.58-1.14,1.07-1.52,.47-.34,.99-.51,1.54-.51,.2,0,.38,.01,.53,.04,0,0,0,2.03,0,2.03Z"/><path class="cls-1" d="M122.16,26.25c0,.38-.03,.7-.08,.97h-6.4c.03,.95,.33,1.67,.93,2.17,.54,.45,1.24,.67,2.09,.67,.95,0,1.81-.15,2.59-.45l.33,1.48c-.91,.4-1.98,.59-3.22,.59-1.49,0-2.66-.44-3.51-1.31-.85-.88-1.27-2.05-1.27-3.52s.39-2.65,1.19-3.61c.83-1.03,1.95-1.54,3.36-1.54s2.43,.51,3.14,1.54c.56,.81,.85,1.82,.85,3.02Zm-2.03-.55c.01-.63-.12-1.18-.41-1.64-.37-.59-.94-.89-1.7-.89-.7,0-1.26,.29-1.7,.87-.36,.46-.57,1.01-.63,1.66h4.44Z"/></g><g><path class="cls-1" d="M49.05,10.01c0,1.18-.35,2.06-1.06,2.66-.65,.55-1.58,.82-2.78,.82-.6,0-1.11-.03-1.53-.08V6.98c.56-.09,1.16-.14,1.81-.14,1.15,0,2.01,.25,2.59,.75,.65,.56,.98,1.37,.98,2.42Zm-1.1,.03c0-.76-.2-1.35-.61-1.76-.4-.41-.99-.61-1.77-.61-.33,0-.61,.02-.84,.07v4.89c.13,.02,.37,.03,.71,.03,.8,0,1.42-.22,1.86-.67s.66-1.1,.66-1.95Z"/><path class="cls-1" d="M54.91,11.04c0,.73-.21,1.32-.62,1.78-.43,.48-1.01,.72-1.73,.72s-1.24-.23-1.65-.69c-.41-.46-.62-1.04-.62-1.74s.21-1.33,.63-1.79,.99-.7,1.71-.7,1.25,.23,1.67,.69c.4,.45,.6,1.02,.6,1.73Zm-1.09,.03c0-.44-.09-.81-.28-1.12-.22-.38-.53-.56-.94-.56s-.74,.19-.96,.56c-.19,.31-.28,.69-.28,1.14s.09,.81,.28,1.12c.23,.38,.54,.56,.95,.56s.71-.19,.94-.57c.19-.32,.29-.69,.29-1.13Z"/><path class="cls-1" d="M62.76,8.72l-1.47,4.71h-.96l-.61-2.05c-.15-.51-.28-1.02-.38-1.52h-.02c-.09,.52-.22,1.02-.38,1.52l-.65,2.05h-.97l-1.39-4.71h1.08l.53,2.24c.13,.53,.24,1.03,.32,1.51h.02c.08-.39,.21-.9,.39-1.5l.67-2.25h.85l.64,2.2c.15,.54,.28,1.05,.38,1.55h.03c.07-.48,.18-1,.32-1.55l.57-2.2h1.03Z"/><path class="cls-1" d="M68.2,13.43h-1.05v-2.7c0-.83-.32-1.25-.95-1.25-.31,0-.56,.11-.76,.34-.19,.23-.29,.5-.29,.81v2.8h-1.05v-3.37c0-.41-.01-.86-.04-1.35h.92l.05,.74h.03c.12-.23,.3-.42,.54-.57,.28-.18,.6-.27,.95-.27,.44,0,.81,.14,1.1,.43,.36,.35,.54,.87,.54,1.56v2.82Z"/><path class="cls-1" d="M71.09,13.43h-1.05V6.56h1.05v6.88Z"/><path class="cls-1" d="M77.26,11.04c0,.73-.21,1.32-.62,1.78-.43,.48-1.01,.72-1.73,.72s-1.24-.23-1.65-.69c-.41-.46-.61-1.04-.61-1.74s.21-1.33,.64-1.79,.99-.7,1.71-.7,1.25,.23,1.67,.69c.4,.45,.6,1.02,.6,1.73Zm-1.09,.03c0-.44-.09-.81-.28-1.12-.22-.38-.53-.56-.94-.56s-.74,.19-.96,.56c-.19,.31-.28,.69-.28,1.14s.09,.81,.28,1.12c.23,.38,.54,.56,.95,.56s.71-.19,.94-.57c.19-.32,.29-.69,.29-1.13Z"/><path class="cls-1" d="M82.33,13.43h-.94l-.08-.54h-.03c-.32,.43-.78,.65-1.38,.65-.44,0-.81-.14-1.08-.43-.25-.26-.37-.58-.37-.96,0-.58,.24-1.02,.72-1.32,.48-.3,1.16-.45,2.03-.45v-.09c0-.62-.33-.93-.98-.93-.46,0-.88,.12-1.23,.35l-.21-.69c.44-.27,.98-.41,1.62-.41,1.23,0,1.85,.65,1.85,1.95v1.74c0,.47,.02,.85,.07,1.12Zm-1.09-1.62v-.73c-1.16-.02-1.73,.3-1.73,.95,0,.25,.07,.43,.2,.55,.14,.12,.31,.18,.51,.18,.23,0,.44-.07,.64-.22,.2-.15,.32-.33,.36-.56,.01-.05,.02-.11,.02-.18Z"/><path class="cls-1" d="M88.29,13.43h-.93l-.05-.76h-.03c-.3,.58-.8,.86-1.51,.86-.57,0-1.04-.22-1.42-.67s-.56-1.02-.56-1.74c0-.76,.2-1.38,.61-1.85,.39-.44,.88-.66,1.46-.66,.63,0,1.08,.21,1.33,.64h.02v-2.71h1.05v5.61c0,.46,.01,.88,.04,1.27Zm-1.09-1.99v-.79c0-.14-.01-.25-.03-.33-.06-.25-.19-.46-.38-.64-.19-.17-.43-.26-.7-.26-.39,0-.7,.15-.92,.47-.22,.31-.34,.71-.34,1.19s.11,.84,.32,1.14c.23,.31,.53,.47,.92,.47,.34,0,.62-.13,.83-.39,.2-.24,.3-.53,.3-.86Z"/><path class="cls-1" d="M97.25,11.04c0,.73-.21,1.32-.62,1.78-.43,.48-1.01,.72-1.73,.72s-1.24-.23-1.65-.69c-.41-.46-.61-1.04-.61-1.74s.21-1.33,.64-1.79,.99-.7,1.71-.7,1.25,.23,1.67,.69c.4,.45,.6,1.02,.6,1.73Zm-1.09,.03c0-.44-.09-.81-.28-1.12-.22-.38-.53-.56-.94-.56s-.74,.19-.96,.56c-.19,.31-.28,.69-.28,1.14s.09,.81,.28,1.12c.23,.38,.54,.56,.95,.56s.71-.19,.94-.57c.19-.32,.29-.69,.29-1.13Z"/><path class="cls-1" d="M102.88,13.43h-1.05v-2.7c0-.83-.32-1.25-.95-1.25-.31,0-.56,.11-.76,.34s-.29,.5-.29,.81v2.8h-1.05v-3.37c0-.41-.01-.86-.04-1.35h.92l.05,.74h.03c.12-.23,.31-.42,.54-.57,.29-.18,.6-.27,.95-.27,.44,0,.81,.14,1.1,.43,.36,.35,.54,.87,.54,1.56v2.82Z"/><path class="cls-1" d="M109.94,9.5h-1.15v2.29c0,.58,.21,.87,.61,.87,.19,0,.34-.02,.47-.05l.03,.8c-.21,.08-.48,.12-.81,.12-.41,0-.74-.13-.97-.38-.23-.25-.35-.68-.35-1.27v-2.38h-.69v-.78h.69v-.86l1.03-.31v1.17h1.15v.79h0Z"/><path class="cls-1" d="M115.48,13.43h-1.05v-2.68c0-.85-.32-1.27-.95-1.27-.49,0-.82,.24-1,.73-.03,.1-.05,.23-.05,.38v2.84h-1.05V6.56h1.05v2.84h.02c.33-.52,.8-.77,1.42-.77,.43,0,.79,.14,1.08,.43,.36,.35,.53,.88,.53,1.58,0,0,0,2.8,0,2.8Z"/><path class="cls-1" d="M121.21,10.85c0,.19-.01,.35-.04,.48h-3.14c.01,.47,.16,.82,.46,1.07,.27,.22,.61,.33,1.03,.33,.46,0,.89-.07,1.27-.22l.16,.73c-.45,.19-.97,.29-1.58,.29-.73,0-1.31-.22-1.72-.64-.42-.43-.62-1.01-.62-1.73s.19-1.3,.58-1.77c.41-.5,.96-.76,1.65-.76s1.19,.25,1.54,.76c.28,.4,.42,.89,.42,1.48Zm-1-.27c0-.31-.06-.58-.2-.81-.18-.29-.46-.44-.83-.44-.34,0-.62,.14-.83,.43-.17,.23-.28,.5-.31,.81h2.18Z"/></g></svg>