<?xml version="1.0" encoding="UTF-8"?><svg id="artwork" xmlns="http://www.w3.org/2000/svg" xmlns:xlink="http://www.w3.org/1999/xlink" viewBox="0 0 135 40"><defs><style>.cls-1,.cls-2,.cls-3{fill:#fff;}.cls-4{fill:url(#_名称未設定グラデーション_4);}.cls-5{fill:#a6a6a6;}.cls-2{stroke:#fff;stroke-miterlimit:10;stroke-width:.2px;}.cls-6{opacity:.2;}.cls-6,.cls-3,.cls-7{isolation:isolate;}.cls-3{opacity:.25;}.cls-8{fill:url(#_名称未設定グラデーション_2);}.cls-7{opacity:.12;}.cls-9{fill:url(#_名称未設定グラデーション);}.cls-10{fill:url(#_名称未設定グラデーション_3);}</style><linearGradient id="_名称未設定グラデーション" x1="21.8" y1="-65.73" x2="5.02" y2="-48.95" gradientTransform="translate(0 74.44)" gradientUnits="userSpaceOnUse"><stop offset="0" stop-color="#00a0ff"/><stop offset="0" stop-color="#00a1ff"/><stop offset=".26" stop-color="#00beff"/><stop offset=".51" stop-color="#00d2ff"/><stop offset=".76" stop-color="#00dfff"/><stop offset="1" stop-color="#00e3ff"/></linearGradient><linearGradient id="_名称未設定グラデーション_2" x1="33.83" y1="-54.44" x2="9.64" y2="-54.44" gradientTransform="translate(0 74.44)" gradientUnits="userSpaceOnUse"><stop offset="0" stop-color="#ffe000"/><stop offset=".41" stop-color="#ffbd00"/><stop offset=".78" stop-color="orange"/><stop offset="1" stop-color="#ff9c00"/></linearGradient><linearGradient id="_名称未設定グラデーション_3" x1="24.83" y1="-52.14" x2="2.07" y2="-29.39" gradientTransform="translate(0 74.44)" gradientUnits="userSpaceOnUse"><stop offset="0" stop-color="#ff3a44"/><stop offset="1" stop-color="#c31162"/></linearGradient><linearGradient id="_名称未設定グラデーション_4" x1="7.3" y1="-74.26" x2="17.46" y2="-64.1" gradientTransform="translate(0 74.44)" gradientUnits="userSpaceOnUse"><stop offset="0" stop-color="#32a071"/><stop offset=".07" stop-color="#2da771"/><stop offset=".48" stop-color="#15cf74"/><stop offset=".8" stop-color="#06e775"/><stop offset="1" stop-color="#00f076"/></linearGradient></defs><rect width="135" height="40" rx="5" ry="5"/><path class="cls-5" d="M130,.8c2.32,0,4.2,1.88,4.2,4.2v30c0,2.32-1.88,4.2-4.2,4.2H5c-2.32,0-4.2-1.88-4.2-4.2V5C.8,2.68,2.68,.8,5,.8h125m0-.8H5C2.25,0,0,2.25,0,5v30c0,2.75,2.25,5,5,5h125c2.75,0,5-2.25,5-5V5c0-2.75-2.25-5-5-5h0Z"/><g><path class="cls-2" d="M47.42,10.24c0,.84-.25,1.51-.75,2-.56,.59-1.3,.89-2.2,.89s-1.6-.3-2.21-.9-.91-1.35-.91-2.23,.3-1.63,.91-2.23,1.34-.9,2.21-.9c.43,0,.84,.08,1.23,.25s.7,.39,.94,.67l-.53,.53c-.4-.47-.94-.71-1.64-.71-.63,0-1.18,.22-1.64,.67-.46,.44-.69,1.02-.69,1.73s.23,1.29,.69,1.73c.46,.44,1.01,.67,1.64,.67,.67,0,1.23-.22,1.68-.67,.29-.29,.46-.7,.5-1.22h-2.18v-.72h2.91c.03,.16,.04,.31,.04,.45h0Z"/><path class="cls-2" d="M52.03,7.74h-2.73v1.9h2.46v.72h-2.46v1.9h2.73v.74h-3.5V7h3.5v.74Z"/><path class="cls-2" d="M55.28,13h-.77V7.74h-1.68v-.74h4.12v.74h-1.68v5.26h0Z"/><path class="cls-2" d="M59.94,13V7h.77v6h-.77Z"/><path class="cls-2" d="M64.13,13h-.77V7.74h-1.68v-.74h4.12v.74h-1.68v5.26h0Z"/><path class="cls-2" d="M73.61,12.22c-.59,.61-1.32,.91-2.2,.91s-1.61-.3-2.2-.91-.88-1.35-.88-2.22,.29-1.62,.88-2.22c.59-.61,1.32-.91,2.2-.91s1.6,.3,2.2,.91c.59,.61,.89,1.35,.89,2.22s-.3,1.62-.88,2.22h-.01Zm-3.83-.5c.44,.45,.99,.67,1.63,.67s1.19-.22,1.63-.67c.44-.45,.67-1.02,.67-1.72s-.22-1.27-.67-1.72c-.44-.45-.99-.67-1.63-.67s-1.19,.22-1.63,.67c-.44,.45-.67,1.02-.67,1.72s.22,1.27,.67,1.72Z"/><path class="cls-2" d="M75.58,13V7h.94l2.92,4.67h.03l-.03-1.16v-3.51h.77v6h-.8l-3.05-4.89h-.03l.03,1.16v3.74h-.78Z"/></g><path class="cls-1" d="M68.14,21.75c-2.35,0-4.27,1.79-4.27,4.25s1.92,4.25,4.27,4.25,4.27-1.8,4.27-4.25-1.92-4.25-4.27-4.25Zm0,6.83c-1.29,0-2.4-1.06-2.4-2.58s1.11-2.58,2.4-2.58,2.4,1.05,2.4,2.58-1.11,2.58-2.4,2.58Zm-9.31-6.83c-2.35,0-4.27,1.79-4.27,4.25s1.92,4.25,4.27,4.25,4.27-1.8,4.27-4.25-1.92-4.25-4.27-4.25Zm0,6.83c-1.29,0-2.4-1.06-2.4-2.58s1.11-2.58,2.4-2.58,2.4,1.05,2.4,2.58-1.11,2.58-2.4,2.58Zm-11.08-5.53v1.8h4.32c-.13,1.02-.47,1.76-.98,2.27-.63,.63-1.61,1.32-3.33,1.32-2.66,0-4.74-2.14-4.74-4.8s2.08-4.8,4.74-4.8c1.43,0,2.48,.56,3.25,1.29l1.27-1.27c-1.08-1.03-2.51-1.82-4.53-1.82-3.64,0-6.7,2.96-6.7,6.61s3.06,6.61,6.7,6.61c1.97,0,3.45-.64,4.61-1.85,1.19-1.19,1.56-2.87,1.56-4.22,0-.42-.03-.81-.1-1.13h-6.07Zm45.31,1.39c-.35-.95-1.43-2.71-3.64-2.71s-4.01,1.72-4.01,4.25c0,2.38,1.8,4.25,4.22,4.25,1.95,0,3.08-1.19,3.54-1.88l-1.45-.97c-.48,.71-1.14,1.18-2.09,1.18s-1.63-.44-2.06-1.29l5.69-2.35-.19-.48h-.01Zm-5.8,1.42c-.05-1.64,1.27-2.48,2.22-2.48,.74,0,1.37,.37,1.58,.9,0,0-3.8,1.58-3.8,1.58Zm-4.62,4.12h1.87v-12.5h-1.87v12.5Zm-3.06-7.3h-.06c-.42-.5-1.22-.95-2.24-.95-2.13,0-4.08,1.87-4.08,4.27s1.95,4.24,4.08,4.24c1.02,0,1.82-.45,2.24-.97h.06v.61c0,1.63-.87,2.5-2.27,2.5-1.14,0-1.85-.82-2.14-1.51l-1.63,.68c.47,1.13,1.71,2.51,3.77,2.51,2.19,0,4.04-1.29,4.04-4.43v-7.64h-1.77s0,.69,0,.69Zm-2.14,5.88c-1.29,0-2.37-1.08-2.37-2.56s1.08-2.59,2.37-2.59,2.27,1.1,2.27,2.59-1,2.56-2.27,2.56Zm24.38-11.08h-4.47v12.5h1.87v-4.74h2.61c2.07,0,4.1-1.5,4.1-3.88s-2.03-3.88-4.1-3.88h-.01Zm.05,6.03h-2.65v-4.29h2.65c1.4,0,2.19,1.16,2.19,2.14s-.79,2.14-2.19,2.14h0Zm11.53-1.79c-1.35,0-2.75,.6-3.33,1.91l1.66,.69c.35-.69,1.01-.92,1.7-.92,.96,0,1.95,.58,1.96,1.61v.13c-.34-.19-1.06-.48-1.95-.48-1.79,0-3.6,.98-3.6,2.81,0,1.67,1.46,2.75,3.1,2.75,1.25,0,1.95-.56,2.38-1.22h.06v.97h1.8v-4.79c0-2.22-1.66-3.46-3.8-3.46h.02Zm-.23,6.85c-.61,0-1.46-.31-1.46-1.06,0-.96,1.06-1.33,1.98-1.33,.82,0,1.21,.18,1.7,.42-.14,1.16-1.14,1.98-2.22,1.98h0Zm10.58-6.59l-2.14,5.42h-.06l-2.22-5.42h-2.01l3.33,7.58-1.9,4.21h1.95l5.13-11.79h-2.08Zm-16.81,8h1.87v-12.5h-1.87v12.5Z"/><g><path class="cls-9" d="M10.44,7.54c-.29,.31-.46,.79-.46,1.4V31.06c0,.62,.17,1.1,.46,1.4l.07,.07,12.39-12.39v-.29L10.51,7.46l-.07,.07h0Z"/><path class="cls-8" d="M27.03,24.28l-4.13-4.13v-.29l4.13-4.13,.09,.05,4.89,2.78c1.4,.79,1.4,2.09,0,2.89l-4.89,2.78s-.09,.05-.09,.05Z"/><path class="cls-10" d="M27.12,24.22l-4.22-4.22-12.46,12.46c.46,.49,1.22,.55,2.08,.06l14.61-8.3"/><path class="cls-4" d="M27.12,15.78L12.51,7.48c-.86-.49-1.62-.43-2.08,.06l12.46,12.46,4.22-4.22h0Z"/><g><path class="cls-6" d="M27.03,24.13l-14.52,8.25c-.81,.46-1.54,.43-2,0h0l-.07,.07h0l.07,.07h0c.47,.42,1.19,.45,2,0l14.61-8.3-.09-.09Z"/><path class="cls-7" d="M10.44,32.32c-.29-.31-.46-.79-.46-1.4v.15c0,.62,.17,1.1,.46,1.4l.07-.07-.07-.07h0Z"/></g><path class="cls-7" d="M32.01,21.3l-4.99,2.83,.09,.09,4.89-2.78c.7-.4,1.05-.92,1.05-1.44h0c-.06,.47-.41,.94-1.05,1.3h.01Z"/><path class="cls-3" d="M12.51,7.62l19.5,11.08c.63,.36,.99,.82,1.05,1.3h0c0-.52-.35-1.05-1.05-1.44L12.51,7.48c-1.4-.79-2.54-.13-2.54,1.47v.15c0-1.6,1.14-2.26,2.54-1.47h0Z"/></g></svg>