<?xml version="1.0" encoding="utf-8"?>
<!-- Generator: Adobe Illustrator 25.4.8, SVG Export Plug-In . SVG Version: 6.00 Build 0)  -->
<svg version="1.1" id="レイヤー_2_00000044866696364927329650000009510499643565959095_"
	 xmlns="http://www.w3.org/2000/svg" xmlns:xlink="http://www.w3.org/1999/xlink" x="0px" y="0px" viewBox="0 0 142.6 175.1"
	 style="enable-background:new 0 0 142.6 175.1;" xml:space="preserve">
<style type="text/css">
	.st0{fill:none;stroke:#000000;stroke-width:4;stroke-linecap:round;stroke-linejoin:round;stroke-miterlimit:10;}
	.st1{enable-background:new    ;}
</style>
<g>
	<path class="st0" d="M107.8,112.2h-7.2V89.6c0,0,0.3-5.5,2.2-7.5s5.9-8.4,6.5-12.2c0.6-3.8-1.1-14.4-1.1-14.4s-1.4-5.7,3.3-6
		c4.7-0.3,9.1-1.4,9.5-6s0-8.3,0-8.3s-5.3,0.3-7.3-0.7s-10.6-7.2-17-6.8c-6.3,0.4-12.5,3.4-13.4,11.6s-1,15.1-8.9,23.3
		s-16.8,16-20.7,28.7s-3,17.1-3,17.1s-4.6,3.6-10.5,3.7s-16.4-4-16.4-4"/>
	<path class="st0" d="M97,37.6c0,0,1.9,12.8-5.2,12.6c-7-0.1-8.5-10.5-8.5-10.5"/>
	<path class="st0" d="M64.8,95.1c0,0,6-7.6,11.9-6.8c14.8,2.2,1.1,23.9,1.1,23.9"/>
	<path class="st0" d="M83.5,112.9c0,0-26.9,0-29.5,0s-3.8-2.2-3.5-6"/>
</g>
<g class="st1">
	<path d="M32.2,130.1c-0.1,0.5-0.1,1-0.2,1.4c-0.1,2.7-0.4,10.4-1.6,13.1c-0.6,1.2-1.5,1.8-3.1,1.8c-1.5,0-3-0.1-4.4-0.2l-0.3-2.8
		c1.4,0.2,2.8,0.3,3.9,0.3c0.8,0,1.2-0.2,1.5-0.9c0.9-1.9,1.3-8,1.3-10.9h-6.9c-1,7.5-3.7,11.6-8.3,14.9l-2.5-2
		c1-0.5,2.2-1.3,3.1-2.3c2.6-2.5,4.3-5.7,4.9-10.6h-4.1c-1,0-2.3,0-3.3,0.1v-2.8c1,0.1,2.2,0.2,3.3,0.2h4.3c0.1-0.8,0.1-1.7,0.1-2.6
		c0-0.6-0.1-1.7-0.2-2.3H23c-0.1,0.6-0.1,1.6-0.1,2.3c0,0.9-0.1,1.8-0.1,2.6h5.8c0.7,0,1.3-0.1,1.9-0.2L32.2,130.1z"/>
	<path d="M37.1,133.8c0.9,0.1,2.5,0.2,4,0.2h14.6c1.3,0,2.4-0.1,3-0.2v3.3c-0.6,0-1.8-0.1-3-0.1H41c-1.5,0-3.1,0.1-4,0.1V133.8z"/>
	<path d="M79,139.2c-2.9-1.5-7.2-3.2-10.2-4.2v8.3c0,0.8,0.1,2.5,0.2,3.4h-3.3c0.1-0.9,0.2-2.4,0.2-3.4v-15.6c0-0.9-0.1-2.1-0.2-3
		H69c-0.1,0.9-0.2,2.1-0.2,3v4.2c3.6,1.1,8.7,3,11.4,4.3L79,139.2z"/>
	<path d="M94.3,144.2c0.9-0.1,1.7-0.2,2.4-0.4c3.4-0.8,6.5-3.3,6.5-7.6c0-3.9-2.3-6.9-6.4-7.4c-0.4,2.4-0.9,5-1.6,7.5
		c-1.6,5.4-3.8,8.5-6.5,8.5c-2.6,0-5.1-3-5.1-7.4c0-5.9,5.3-11.1,11.9-11.1c6.4,0,10.5,4.5,10.5,10.1c0,5.6-3.6,9.5-10.1,10.4
		L94.3,144.2z M92.4,135.7c0.7-2.1,1.2-4.5,1.5-6.9c-4.8,0.8-7.6,5-7.6,8.2c0,3.1,1.4,4.5,2.5,4.5C89.9,141.6,91.2,139.8,92.4,135.7
		z"/>
	<path d="M132,141.8c-0.8-0.7-1.6-1.3-2.6-2c-1.1,3.3-3.2,5.7-6.9,7.6l-2.3-1.9c4.1-1.8,6-4.5,6.9-7.2c-2.1-1.1-4.5-2-7-2.3
		c-1,2.3-2.2,5.2-3.2,6.7c-1,1.5-2.2,2.1-3.7,2.1c-2.1,0-3.7-1.5-3.7-4c0-4,3.7-7.1,9-7.3c0.9-1.9,1.8-4,2.5-5.5
		c-1.1,0-3.9,0.2-5.1,0.2c-0.6,0-1.4,0.1-2.1,0.2l-0.1-2.7c0.7,0.1,1.5,0.1,2.1,0.1c1.5,0,4.7-0.1,5.8-0.2c0.6,0,1.1-0.2,1.5-0.3
		l1.7,1.3c-0.3,0.3-0.6,0.6-0.8,1c-0.7,1.2-1.8,3.7-2.8,6.1c2.4,0.3,4.6,1.1,6.6,2c0.1-0.5,0.1-1,0.2-1.5c0.1-0.8,0.1-1.8,0-2.6
		l2.7,0.3c-0.1,1.9-0.2,3.5-0.5,5.1c1.2,0.7,2.2,1.4,3.1,1.9L132,141.8z M117.4,136.1c-3.4,0.4-5.4,2.5-5.4,4.5
		c0,0.9,0.6,1.5,1.3,1.5c0.6,0,1-0.2,1.5-0.9C115.6,140,116.5,138,117.4,136.1z"/>
</g>
</svg>
