<?xml version="1.0" encoding="UTF-8"?><svg id="_イヤー_3" xmlns="http://www.w3.org/2000/svg" viewBox="0 0 170.36 127.56"><defs><style>.cls-1{fill:none;stroke:#000;stroke-linecap:round;stroke-linejoin:round;stroke-width:4px;}</style></defs><g><path d="M8.11,104.57H31.03c.74,0,1.89-.03,2.73-.17v2.91c-.77-.04-1.89-.07-2.73-.07h-9.52c-.11,3.78-.67,6.97-2.07,9.56-1.26,2.34-3.92,4.87-6.9,6.41l-2.59-1.92c2.73-1.12,5.25-3.15,6.62-5.36,1.54-2.45,1.92-5.39,2.03-8.68H8.11c-1.05,0-2.07,0-3.05,.07v-2.91c.98,.11,1.96,.17,3.05,.17Zm4.3-8.75h14.18c.98,0,2.24-.07,3.26-.21v2.91c-1.02-.07-2.24-.1-3.26-.1H12.45c-1.16,0-2.31,.04-3.19,.1v-2.91c.98,.11,2.03,.21,3.15,.21Z"/><path d="M65.45,105.69c-.95,3.47-2.52,7.11-5.11,9.94-3.68,4.03-8.05,6.09-12.53,7.32l-2.17-2.49c4.97-1.01,9.35-3.25,12.32-6.41,2.14-2.24,3.54-5.22,4.17-7.74h-18.59c-.84,0-2.17,.03-3.43,.1v-2.94c1.29,.14,2.49,.21,3.43,.21h18.45c.81,0,1.54-.07,1.93-.28l2,1.26c-.17,.31-.38,.77-.46,1.01Zm-19.04-10.08h13.76c1.12,0,2.35-.03,3.19-.17v2.91c-.84-.07-2.03-.1-3.22-.1h-13.72c-1.08,0-2.21,.03-3.15,.1v-2.91c.91,.14,2.03,.17,3.15,.17Z"/><path d="M92.87,99.64c-1.19,3.01-3.4,7.11-5.88,10.26,3.68,3.15,7.95,7.7,10.22,10.47l-2.45,2.1c-2.34-3.08-6.06-7.21-9.63-10.4-3.75,4.03-8.47,7.88-13.65,10.22l-2.24-2.34c5.64-2.21,10.82-6.37,14.42-10.4,2.38-2.7,4.94-6.83,5.81-9.73h-13.65c-1.23,0-3.15,.14-3.54,.17v-3.19c.49,.07,2.49,.21,3.54,.21h13.51c1.16,0,2.06-.1,2.62-.28l1.79,1.37c-.21,.28-.67,1.05-.88,1.54Z"/><path d="M116.53,122.6l-1.65-2.59c1.12-.1,2.21-.28,3.01-.46,4.48-1.01,8.89-4.34,8.89-10.4,0-5.29-3.4-9.66-9.35-10.15-.46,3.26-1.12,6.83-2.1,10.08-2.13,7.21-4.9,10.89-8.16,10.89s-6.23-3.57-6.23-9.35c0-7.6,6.76-14.25,15.3-14.25s13.41,5.78,13.41,12.88-4.83,12.25-13.13,13.34Zm-9.24-5.85c1.65,0,3.5-2.35,5.29-8.26,.88-2.91,1.58-6.23,1.96-9.45-6.72,.84-10.85,6.58-10.85,11.34,0,4.41,2.03,6.37,3.61,6.37Z"/><path d="M142.55,95.96c1.86,0,6.44-.25,7.91-.35,.67-.07,1.29-.21,1.75-.38l1.75,1.44c-.32,.38-.63,.73-.91,1.16-.98,1.57-2.52,5.15-3.99,8.4,3.54,.38,6.79,1.5,9.63,2.8,.14-.88,.21-1.75,.28-2.59,.04-1.05,.07-2.24,0-3.22l2.83,.32c-.1,2.49-.35,4.73-.73,6.76,1.68,.95,3.12,1.89,4.24,2.7l-1.29,3.01c-1.05-.91-2.28-1.85-3.64-2.76-1.44,4.55-4.13,7.88-9.21,10.4l-2.31-1.92c5.53-2.35,8.05-6.09,9.17-9.87-2.94-1.65-6.37-2.91-10.01-3.22-1.37,3.08-3.08,7.21-4.41,9.17-1.26,1.79-2.59,2.42-4.41,2.42-2.59,0-4.55-1.86-4.55-4.8,0-5.15,4.76-9.1,11.66-9.28,1.22-2.76,2.55-5.81,3.64-7.98-1.4,.07-5.67,.25-7.28,.35-.77,.03-1.75,.14-2.59,.21l-.14-2.84c.91,.07,1.93,.11,2.62,.11Zm-3.25,21.46c.8,0,1.37-.32,2.1-1.23,1.26-1.64,2.59-4.9,3.82-7.63-5.11,.38-8.02,3.46-8.02,6.48,0,1.54,.98,2.38,2.1,2.38Z"/></g><g><path class="cls-1" d="M118.06,82.48h-6.68v-20.96s.27-5.07,2.01-6.94c1.74-1.87,5.47-7.84,6.01-11.33s-1.07-13.37-1.07-13.37c0,0-1.34-5.34,3.08-5.61s8.41-1.34,8.82-5.61,0-7.75,0-7.75c0,0-4.94,.27-6.81-.67s-9.88-6.68-15.76-6.27-11.61,3.21-12.42,10.82c-.8,7.61-.94,14.02-8.28,21.63-7.34,7.61-15.62,14.82-19.22,26.7-3.61,11.88-2.81,15.89-2.81,15.89,0,0-4.27,3.34-9.75,3.47s-15.22-3.74-15.22-3.74"/><path class="cls-1" d="M108.04,13.18s1.74,11.88-4.8,11.75-7.89-9.75-7.89-9.75"/><path class="cls-1" d="M78.13,66.59s5.61-7.08,11.08-6.27c13.74,2.01,1.07,22.17,1.07,22.17"/><path class="cls-1" d="M95.49,83.14h-27.37c-2.41,0-3.49-2.03-3.27-5.61"/></g></svg>