<svg viewBox="0 0 68 68" xmlns="http://www.w3.org/2000/svg"><circle cx="34" cy="34" fill="#9f005b" r="34"/><g fill="#fff"><path d="m29.1 24.2c1 2 2.7 3.8 4.6 4.8-.4.3-.9 1-1.2 1.4-.8-.5-1.5-1.1-2.2-1.8v1.5h-2.2v2.2h-1.7v-2.2h-2.3v-1.4c-.6.7-1.3 1.2-2.1 1.7-.3-.4-.8-1-1.1-1.3 1.9-1 3.5-2.9 4.5-5h-4v-1.6h5v-2.6h1.7v2.6h5v1.6h-4.1zm-2.6 4.4v-2.9c-.6 1.1-1.3 2-2.1 2.9zm3.7 0c-.8-.8-1.5-1.8-2.1-2.9v2.9z"/><path d="m45.4 20.9v11.4h-1.7v-.8h-5.9v.9h-1.6v-11.4h9.2zm-7.6 1.5v2.8h5.9v-2.8zm5.9 7.4v-3h-5.9v3z"/><path d="m16.1 40.8v7.2h-1.5v-11.8h5.1v4.7h-3.6zm0-3.6v.7h2.1v-.7zm2.1 2.4v-.7h-2.1v.7zm3.9 5.4v2.7h-1.4v-2.7h-1.3c-.1.9-.6 2.2-1.7 3-.2-.3-.7-.7-1-.9.8-.5 1.2-1.4 1.3-2.1h-1.3v-1.3h1.4v-1h-1.2v-1.2h6.4v1.2h-1.2v1h1.5v1.3zm-1.4-1.3v-1h-1.2v1zm5.1 2.4c0 .8-.1 1.2-.6 1.5s-1.2.3-2.2.3c0-.4-.3-1.2-.5-1.6h1.4c.2 0 .3 0 .3-.3v-5.3h-3.6v-4.7h5.2v10zm-3.7-8.9v.7h2.1v-.7zm2.1 2.5v-.7h-2.1v.7z"/><path d="m40.3 47.4h-6v.5h-1.5v-5.3c-.2.3-.5.5-.7.8-.3-.3-.8-.8-1.1-1.1v5.6h-1.5v-6.8c-.3.4-.6.7-.9 1.1-.1-.4-.6-1.3-.8-1.6 1.2-1.2 2.3-3.1 3-5l1.5.5c-.3.9-.8 1.8-1.3 2.7v3.3c1-.8 1.8-2 2.4-3.2h-.9v-2.9h1.4v1.6h1.5v-2h1.6v2h1.6v-1.6h1.5v2.9h-3.4l1.5.3-.5 1h2.5v1.2h-2.7v.8h2.3v1.1h-2.3v.8h2.3v1.1h-2.3v.8h2.8v1.2zm-5.5-8.1c-.1.3-.3.7-.5 1h1.7c.2-.4.3-.9.4-1.3h-2.7zm1.1 2.1h-1.7v.8h1.7zm0 2h-1.7v.8h1.7zm-1.6 2.8h1.7v-.8h-1.7z"/><path d="m53.4 37.9v6.6h-1.7v-.7h-3v4.1h-1.7v-4.1h-3v.7h-1.6v-6.7h4.6v-2.3h1.7v2.3h4.6zm-6.3 4.4v-2.8h-3v2.8zm4.6 0v-2.8h-3v2.8z"/></g></svg>