<?xml version="1.0" encoding="utf-8"?>
<!-- Generator: Adobe Illustrator 25.4.8, SVG Export Plug-In . SVG Version: 6.00 Build 0)  -->
<svg version="1.1" id="レイヤー_2_00000044866696364927329650000009510499643565959095_"
	 xmlns="http://www.w3.org/2000/svg" xmlns:xlink="http://www.w3.org/1999/xlink" x="0px" y="0px" viewBox="0 0 165.6 175.1"
	 style="enable-background:new 0 0 165.6 175.1;" xml:space="preserve">
<style type="text/css">
	.st0{fill:none;stroke:#000000;stroke-width:4;stroke-linecap:round;stroke-linejoin:round;stroke-miterlimit:10;}
	.st1{enable-background:new    ;}
</style>
<g>
	<path class="st0" d="M117.5,112.2h-7.2V89.6c0,0,0.3-5.5,2.2-7.5c1.9-2,5.9-8.4,6.5-12.2c0.6-3.8-1.1-14.4-1.1-14.4s-1.4-5.7,3.3-6
		c4.7-0.3,9.1-1.4,9.5-6s0-8.3,0-8.3s-5.3,0.3-7.3-0.7s-10.6-7.2-17-6.8c-6.3,0.4-12.5,3.4-13.4,11.6s-1,15.1-8.9,23.3
		s-16.8,16-20.7,28.7s-3,17.1-3,17.1s-4.6,3.6-10.5,3.7s-16.4-4-16.4-4"/>
	<path class="st0" d="M106.7,37.6c0,0,1.9,12.8-5.2,12.6c-7-0.1-8.5-10.5-8.5-10.5"/>
	<path class="st0" d="M74.5,95.1c0,0,6-7.6,11.9-6.8c14.8,2.2,1.1,23.9,1.1,23.9"/>
	<path class="st0" d="M93.2,112.9c0,0-26.9,0-29.5,0s-3.8-2.2-3.5-6"/>
</g>
<g class="st1">
	<path d="M27.2,145.6c1.6,0,1.9-0.5,2-3.6c0.6,0.4,1.6,0.8,2.3,0.9c-0.4,4-1.1,5-4.1,5H21c-3.4,0-4.4-0.6-4.4-3.3v-7.6h6.2v-3.5
		h-5.6v-1.4c-0.4,0.5-0.7,0.9-1.1,1.3c-0.4-0.4-1.4-1.2-1.9-1.6c0.3-0.3,0.6-0.6,0.9-0.9h-2.3v4.7l2.3-0.6l0.3,2.2
		c-0.9,0.3-1.8,0.5-2.6,0.8v7.1c0,1.3-0.3,2-1,2.4c-0.8,0.4-1.9,0.5-3.7,0.5c-0.1-0.6-0.4-1.7-0.7-2.4c1.1,0,2.2,0,2.6,0
		c0.4,0,0.5-0.1,0.5-0.5v-6.4l-3.4,1l-0.5-2.5c1.1-0.2,2.4-0.6,3.9-1v-5.4H6.9v-2.3h3.4v-5.2h2.4v5.2h2.3v2.3c1.6-2,2.9-4.7,3.6-7.6
		l2.4,0.5c-0.3,1-0.6,1.9-1,2.9h10.4v1.1c-0.2,8.7-0.4,11.8-1.2,12.8c-0.5,0.6-0.9,0.9-1.7,1c-0.6,0.1-1.7,0.1-2.9,0.1
		c0-0.7-0.3-1.7-0.6-2.3c1,0.1,1.8,0.1,2.2,0.1c0.4,0,0.6-0.1,0.8-0.4c0.5-0.6,0.7-3.1,0.9-10h-9c-0.4,0.8-0.9,1.6-1.4,2.4h7.4v7.8
		H19v5.4c0,1,0.4,1.2,2.1,1.2H27.2z"/>
	<path d="M54.5,133.4c-1.1,0.4-2.6,0.8-4.4,1.1c0.8,1.6,1.6,3.3,2.3,4.7l-1.3,1.6c-1.4-0.3-3.7-0.6-5.5-0.8l0.2-2
		c1.2,0.1,2.4,0.2,3.2,0.3c-0.5-1-1-2.2-1.5-3.4c-3.4,0.4-7.7,0.5-11.8,0.2l-0.1-2.5c4,0.4,7.8,0.3,11,0l-0.7-1.7
		c-0.2-0.5-0.4-1-0.6-1.4c-2.7,0.2-6,0.2-9.3-0.1l-0.2-2.5c3.1,0.4,6,0.4,8.5,0.3l-0.2-0.5c-0.4-0.9-0.7-1.4-1.1-2.1l3-0.6
		c0.2,0.9,0.6,1.8,0.9,2.9c1.8-0.3,3.6-0.7,5.2-1.3l0.5,2.4c-1.4,0.5-3,0.8-4.8,1.1l0.5,1.1c0.2,0.5,0.5,1.2,0.9,1.9
		c2.1-0.4,3.7-0.9,4.8-1.3L54.5,133.4z M39.3,138.7c-0.3,0.8-0.6,2-0.6,2.7c0,1.9,1.4,3.1,5.1,3.1c2.3,0,4.9-0.2,6.8-0.6l-0.1,2.7
		c-1.6,0.3-4.2,0.5-6.6,0.5c-4.9,0-7.8-1.7-7.8-5.2c0-1.2,0.3-2.5,0.6-3.4L39.3,138.7z"/>
	<path d="M67.7,124.8c-0.1,0.6-0.3,1.2-0.4,1.8c-0.2,0.8-0.4,2.1-0.6,3.3c1.1-0.1,2-0.1,2.7-0.1c2.6,0,4.6,1.1,4.6,4.8
		c0,3.2-0.4,7.4-1.5,9.7c-0.9,1.8-2.2,2.3-4.1,2.3c-1,0-2.3-0.2-3.2-0.4l-0.5-2.8c1.1,0.3,2.6,0.6,3.3,0.6c0.9,0,1.7-0.2,2.2-1.3
		c0.8-1.7,1.2-5,1.2-7.8c0-2.3-1-2.7-2.7-2.7c-0.5,0-1.4,0.1-2.4,0.1c-1,3.9-2.9,10-5.5,14.3l-2.8-1.1c2.6-3.6,4.6-9.3,5.5-12.9
		c-1.2,0.1-2.3,0.2-2.9,0.3c-0.7,0.1-1.9,0.2-2.7,0.4l-0.2-2.9c0.9,0.1,1.7,0,2.6,0c0.9,0,2.3-0.1,3.8-0.3c0.4-2,0.6-4,0.6-5.7
		L67.7,124.8z M76.9,127.4c1.6,2.2,3.9,7.2,4.8,9.7l-2.6,1.3c-0.8-2.8-2.8-7.6-4.7-9.9L76.9,127.4z"/>
	<path d="M93.8,124.8c-0.1,0.6-0.3,1.2-0.4,1.8c-0.2,0.8-0.4,2.1-0.6,3.3c1.1-0.1,2-0.1,2.7-0.1c2.6,0,4.6,1.1,4.6,4.8
		c0,3.2-0.4,7.4-1.5,9.7c-0.9,1.8-2.2,2.3-4.1,2.3c-1,0-2.3-0.2-3.2-0.4l-0.5-2.8c1.1,0.3,2.6,0.6,3.3,0.6c0.9,0,1.7-0.2,2.2-1.3
		c0.8-1.7,1.2-5,1.2-7.8c0-2.3-1-2.7-2.7-2.7c-0.5,0-1.4,0.1-2.4,0.1c-1,3.9-2.9,10-5.5,14.3l-2.8-1.1c2.6-3.6,4.6-9.3,5.5-12.9
		c-1.2,0.1-2.3,0.2-2.9,0.3c-0.7,0.1-1.9,0.2-2.7,0.4l-0.2-2.9c0.9,0.1,1.7,0,2.6,0c0.9,0,2.3-0.1,3.8-0.3c0.4-2,0.6-4,0.6-5.7
		L93.8,124.8z M103,127.4c1.6,2.2,3.9,7.2,4.8,9.7l-2.6,1.3c-0.8-2.8-2.8-7.6-4.7-9.9L103,127.4z"/>
	<path d="M125.6,133.6c-1.1,1-3.9,3.5-4.7,4.4c0.2,0,0.8,0.1,1,0.1c0.9,0.2,1.5,0.8,1.9,1.9c0.2,0.8,0.6,1.9,0.8,2.7
		c0.3,0.9,0.9,1.4,2.1,1.4c1.9,0,3.8-0.2,5.1-0.5l-0.2,2.8c-1.1,0.2-3.7,0.4-5.1,0.4c-2.3,0-3.7-0.5-4.3-2.3c-0.3-0.8-0.6-2.2-0.9-3
		c-0.3-0.9-0.9-1.3-1.5-1.3c-0.6,0-1.2,0.4-1.9,1c-1,0.9-3.4,3.6-5.1,5.7l-2.5-1.8c0.4-0.3,1-0.8,1.5-1.4c1.2-1.2,7.7-7.6,10.2-10.3
		c-2,0.1-5.9,0.4-7.5,0.6c-0.9,0.1-1.6,0.2-2.2,0.3l-0.2-3c0.6,0.1,1.5,0.1,2.4,0.1c1.4,0,7.5-0.4,9.7-0.6c0.5-0.1,1.1-0.2,1.3-0.3
		l1.6,1.8C126.5,132.8,126,133.3,125.6,133.6z M126.4,125.7l-0.4,2.5c-2.7-0.2-7.5-0.8-10.7-1.4l0.4-2.5
		C118.7,125,123.8,125.6,126.4,125.7z"/>
	<path d="M158,127.6h-3.2v17c0,1.6-0.4,2.5-1.5,2.8c-1.2,0.5-3,0.5-5.7,0.5c-0.1-0.7-0.6-2-1.1-2.7c2,0.1,4.3,0.1,4.9,0.1
		c0.6,0,0.8-0.2,0.8-0.8v-17h-18.1v-2.5H158V127.6z M139.2,141.2v2.1h-2.4v-12.2h11.1v10.1H139.2z M139.2,133.5v5.4h6.2v-5.4H139.2z
		"/>
</g>
</svg>
