<svg height="45mm" viewBox="0 0 127.559 127.559" width="45mm" xmlns="http://www.w3.org/2000/svg"><g fill="#080304"><path d="m88.131 75.042h-4v-22.587h-18.351v22.587h-4v-26.587h26.351z"/><path d="m86.131 115.04h-22.351a6.477 6.477 0 0 1 -6.471-6.47v-35.528h35.291v35.528a6.478 6.478 0 0 1 -6.469 6.47zm-24.822-38v31.53a2.473 2.473 0 0 0 2.471 2.47h22.351a2.474 2.474 0 0 0 2.471-2.47v-31.528z"/><path d="m54.838 108.335h-19.881v-44.468a6.478 6.478 0 0 1 6.471-6.467h17.881v4h-17.881a2.474 2.474 0 0 0 -2.471 2.471v40.468h15.881z"/><path d="m85.9 50.455h-4v-17.881c0-3.7-.952-12.533-9.435-17.576-2.3 3.181-4.446 9.111-4.446 15.34v20.117h-4v-20.117c0-8.608 3.381-16.024 6.522-19.271l1.019-1.053 1.311.653c12.085 6.033 13.029 18.291 13.029 21.907z"/><path d="m54.839 115.04h-17.646v-8.705h4v4.705h13.646z"/></g></svg>