<svg viewBox="0 0 32 32" xmlns="http://www.w3.org/2000/svg"><g fill="none" stroke="#000" stroke-linecap="round" stroke-linejoin="round" stroke-width="2"><path d="m8.37 13.37c1.84.67 2.93 2.84 2.93 2.84s2.62-1.35 5.23-.4 3.75 3.67 3.75 3.67 2.31-.93 4.07-.29 3.18 2.9 3.18 2.9c1.62-5.13-1.83-12.52-7.92-14.73s-13.48 1.23-15.54 6.2c0 0 2.46-.85 4.3-.18z"/><path d="m20.29 5.47-.34.94"/><path d="m16.36 16.28-3.25 8.93"/><path d="m13.11 25.21c-.38 1.04-1.53 1.57-2.56 1.2s-1.57-1.53-1.2-2.56"/><path d="m19.61 7.35s-3.37 1.19-5.31 3.7-3 5.15-3 5.15"/><path d="m19.61 7.35s1.81 3.07 1.68 6.25c-.13 3.17-1.01 5.88-1.01 5.88"/></g></svg>