<svg enable-background="new 0 0 141.7 141.7" viewBox="0 0 141.7 141.7" xmlns="http://www.w3.org/2000/svg"><g fill="none" stroke="#000" stroke-miterlimit="10" stroke-width="6"><ellipse cx="37.6" cy="94.7" rx="8.3" ry="9.2"/><ellipse cx="106.7" cy="94.7" rx="8.3" ry="9.2"/><path d="m27.8 94.7-12.6-.5s-3.2-.6-3.6-4.6 3.5-4.1 3.5-4.1v-37.5s.3-5 4.6-5 92.5 0 92.5 0 5.9-.3 8.1 6c2.9 8.2 9.5 28.1 9.5 28.1v12.8s-1 4.7-4.5 4.7-9.7 0-9.7 0"/><path d="m48.1 94.7h48.3"/><path d="m16.8 68.6 111.2 8.2"/><path d="m100.4 43.1v31.5"/><path d="m77.7 43.1v28.9"/><path d="m55.1 43.1v27.2"/><path d="m34.5 43.1v26.8"/></g></svg>