<svg viewBox="0 0 32 32" xmlns="http://www.w3.org/2000/svg"><g fill="none" stroke="#000" stroke-linecap="round" stroke-linejoin="round" stroke-width="2"><path d="m25.5 20.95c1.97-.25 3.5-1.91 3.5-3.95 0-2.21-1.79-4-4-4-.39 0-.75.07-1.11.17.06-.38.11-.77.11-1.17 0-3.87-3.13-7-7-7s-6.68 2.84-6.97 6.44c-.62-.28-1.3-.44-2.03-.44-2.76 0-5 2.24-5 5 0 2.59 1.98 4.7 4.5 4.95"/><path d="m13.5 17.5v2"/><path d="m17.5 25.5v2"/><path d="m23 24v2"/><path d="m19.67 16.5v5"/><path d="m17.5 17.75 4.33 2.5"/><path d="m17.5 20.25 4.33-2.5"/><path d="m11.17 22.5v5"/><path d="m9 23.75 4.33 2.5"/><path d="m9 26.25 4.33-2.5"/></g></svg>