<svg viewBox="0 0 32 32" xmlns="http://www.w3.org/2000/svg"><g fill="none" stroke="#000" stroke-linecap="round" stroke-width="2"><circle cx="11" cy="12.54" r="3.5" stroke-miterlimit="10"/><g stroke-linejoin="round"><path d="m10.9 3.75-.95 1.15.95 1.15"/><path d="m11.1 21.75.95-1.15-.95-1.15"/><path d="m4.57 6.45.13 1.49 1.49.14"/><path d="m17.43 19.05-.13-1.49-1.49-.14"/><path d="m2 12.85 1.15.95 1.15-.95"/><path d="m20 12.65-1.15-.95-1.15.95"/><path d="m4.7 19.18 1.49-.13.14-1.49"/><path d="m17.3 6.32-1.49.13-.14 1.49"/><path d="m28 21.67v-4.55c0-1.66-1.34-3-3-3s-3 1.34-3 3v4.55c-.91.82-1.5 2-1.5 3.33 0 2.49 2.01 4.5 4.5 4.5s4.5-2.01 4.5-4.5c0-1.33-.59-2.51-1.5-3.33z"/><circle cx="25" cy="25" r="1.5"/><path d="m25 24.47v-6.3"/></g></g></svg>