<svg viewBox="0 0 117.48 104.78" xmlns="http://www.w3.org/2000/svg"><g fill="none" stroke="#231815" stroke-linecap="round" stroke-linejoin="round" stroke-width="6.58"><path d="m80.09 20.39h29.9v81.1h-29.9z"/><path d="m109.99 20.39h-29.9l14.9-17.1z"/><path d="m75.79 20.39h38.4"/><path d="m75.79 43.89h38.4"/><path d="m7.59 75.89h72.6v25.6h-72.6z"/><path d="m22.29 101.19v-6.8c0-3.5 2.9-6.4 6.4-6.4 3.5 0 6.4 2.9 6.4 6.4v6.8"/><path d="m51.99 101.19v-6.8c0-3.5 2.9-6.4 6.4-6.4 3.5 0 6.4 2.9 6.4 6.4v6.8"/><path d="m88.79 101.19v-6.8c0-3.5 2.9-6.4 6.4-6.4 3.5 0 6.4 2.9 6.4 6.4v6.8"/><path d="m88.79 42.69v-6.8c0-3.5 2.9-6.4 6.4-6.4 3.5 0 6.4 2.9 6.4 6.4v6.8"/><path d="m3.29 75.89 10.7-17.3h66.1v17.3"/></g></svg>