<svg viewBox="0 0 128 128" xmlns="http://www.w3.org/2000/svg"><g fill="none" stroke="#080304" stroke-linecap="round" stroke-width="4"><g stroke-miterlimit="10"><rect height="73" rx="8.8" transform="matrix(.90996127 .41469324 -.41469324 .90996127 36.2 -13.8)" width="36" x="31.9" y="39.9"/><path d="m23.1 109.3h20v5c0 1.7-1.3 3-3 3h-14c-1.7 0-3-1.3-3-3z" transform="matrix(.90996127 .41469324 -.41469324 .90996127 49.9 -3.5)"/><path d="m65.3 65.9h5c1.7 0 3 1.3 3 3v36c0 1.7-1.3 3-3 3h-5z" transform="matrix(.90996127 .41469324 -.41469324 .90996127 42.3 -20.9)"/><path d="m63.2 42.4 12.9-28.2"/><rect height="9.1" rx="3" width="12.1" x="76.7" y="10.5"/><path d="m71.4 46.1 6.7-14.6"/><rect height="9.1" rx="3" width="12.1" x="78.6" y="27.9"/><path d="m55 38.8 6.7-14.7"/><rect height="9.1" rx="3" transform="matrix(-.65605903 -.75470958 .75470958 -.65605903 79.2 76.6)" width="12.1" x="51" y="15.7"/></g><g stroke-linejoin="round"><path d="m80.4 117.3h9.3l-18.1-21.2"/><path d="m97.4 117.3h9.3l-29.1-36.2"/></g></g></svg>