<svg height="45mm" viewBox="0 0 127.559 127.559" width="45mm" xmlns="http://www.w3.org/2000/svg"><g fill="#080304"><path d="m54.4 112.124-4-.088a226.26 226.26 0 0 1 3.436-35.225l3.922.784a222.3 222.3 0 0 0 -3.358 34.529z"/><path d="m73.159 112.124a222.3 222.3 0 0 0 -3.359-34.524l3.922-.784a226.326 226.326 0 0 1 3.437 35.225z"/><path d="m63.78 114.72c-17.588 0-26.135-1.58-29.663-2.521a4.9 4.9 0 0 1 -3.648-4.966c.959-24.121 11.314-41.365 15.731-48.733.389-.648.728-1.211 1-1.688.131-.226.287-.469.451-.721.153-.237.4-.623.547-.907-4.494-5.7-4.683-12.624-4.819-17.717a49.989 49.989 0 0 0 -4.174 3.85l-1.359 1.472-1.47-1.363c-1.247-1.156-2.67-2.373-4.047-3.549-1.885-1.612-3.836-3.279-5.4-4.853l-1.062-1.064.728-1.316a41.708 41.708 0 0 1 6.794-8.429c.576-.6 1.149-1.2 1.708-1.8l.58-.625c2.864-3.1 6.429-6.957 11.671-6.957h.593c3.334-.011 7.475-.025 8.465 5.174.3 1.588 1.724 6.771 7.372 7.123 5.645-.352 7.069-5.535 7.372-7.123.989-5.2 5.121-5.193 8.465-5.174h.592c5.242 0 8.807 3.858 11.671 6.957l.58.626c.559.6 1.132 1.2 1.708 1.8a41.708 41.708 0 0 1 6.794 8.429l.728 1.316-1.062 1.065c-1.57 1.574-3.521 3.242-5.408 4.854-1.376 1.176-2.8 2.391-4.046 3.548l-1.469 1.362-1.359-1.472a49.793 49.793 0 0 0 -4.173-3.851c-.136 5.094-.325 12.023-4.819 17.718.144.284.394.67.548.907.163.252.319.5.45.721.276.478.615 1.043 1 1.692 4.421 7.364 14.774 24.608 15.733 48.726a4.9 4.9 0 0 1 -3.646 4.965c-3.523.944-12.07 2.524-29.657 2.524zm-17.117-84.947.475 3.413a39.19 39.19 0 0 1 .246 4.165c.131 4.883.293 10.962 4.212 15.668 1.586 1.9.177 4.08-.581 5.25-.125.193-.245.378-.345.55-.285.493-.635 1.075-1.037 1.744-4.264 7.1-14.249 23.731-15.168 46.829a.927.927 0 0 0 .683.942c3.34.891 11.5 2.386 28.632 2.386s25.292-1.5 28.631-2.386a.926.926 0 0 0 .683-.941c-.919-23.1-10.9-39.725-15.166-46.826-.4-.671-.753-1.254-1.039-1.748-.1-.172-.22-.357-.345-.55-.758-1.17-2.166-3.347-.581-5.25 3.919-4.706 4.081-10.785 4.212-15.668a39.19 39.19 0 0 1 .246-4.165l.475-3.413 2.727 2.106c.173.132 3.626 2.8 6.267 5.323.895-.791 1.823-1.584 2.731-2.36 1.386-1.185 2.808-2.4 4.05-3.555a47.194 47.194 0 0 0 -5.387-6.3c-.59-.614-1.178-1.226-1.75-1.839l-.591-.638c-2.576-2.788-5.242-5.672-8.734-5.672h-.609c-3.756 0-4.188.167-4.522 1.922-.912 4.785-4.334 10.022-11.2 10.376h-.1-.1c-6.868-.354-10.288-5.592-11.2-10.376-.335-1.755-.756-1.93-4.522-1.922h-.606c-3.492 0-6.157 2.884-8.733 5.672l-.592.638c-.572.613-1.159 1.225-1.75 1.839a47.194 47.194 0 0 0 -5.387 6.3c1.241 1.155 2.662 2.369 4.047 3.553.909.777 1.838 1.57 2.733 2.362 2.642-2.519 6.095-5.191 6.268-5.323z"/><path d="m65.803 39.142-2.023-3.076-2.024 3.076-3.342-2.199 5.366-8.155 5.365 8.155z"/></g></svg>