<svg xmlns="http://www.w3.org/2000/svg" width="45mm" height="45mm" viewBox="0 0 127.559 127.559"><path d="M19.732,52.934A2,2,0,0,1,18.018,49.9L33.269,24.534a2,2,0,0,1,1.7-.97l57.32-.31h.01a2,2,0,0,1,1.7.951l15.525,25.2a2,2,0,0,1-1.693,3.049l-88.094.476ZM36.118,27.558,23.28,48.915l80.977-.438L91.189,27.26Z"/><path d="M64.075,107.62a2,2,0,0,1-1.554-.74L18.178,52.193a2,2,0,0,1,1.543-3.259l88.1-.476h.011a2,2,0,0,1,1.567,3.242L65.642,106.863a2,2,0,0,1-1.556.757ZM23.911,52.911l40.146,49.512L103.67,52.48Z"/><path d="M64.076,107.619a2,2,0,0,1-1.942-1.518L48.515,51.25a2,2,0,0,1,1.931-2.482l26.645-.144a1.911,1.911,0,0,1,1.577.755,2,2,0,0,1,.38,1.706l-13.026,55a2,2,0,0,1-1.935,1.539ZM53.01,52.754l11.02,44.38,10.54-44.5Z"/><path d="M50.457,52.768a2,2,0,0,1-1.71-.963L33.464,26.6a2,2,0,1,1,3.42-2.074L50.323,46.69l11.546-22.2a2,2,0,0,1,1.763-1.077h.011a2,2,0,0,1,1.765,1.058L77.192,46.545l13.2-22.308a2,2,0,0,1,3.444,2.037L78.824,51.642a2,2,0,0,1-3.487-.076L63.667,29.7,52.231,51.691a2,2,0,0,1-1.709,1.076Z"/></svg>