<svg enable-background="new 0 0 141.7 141.7" viewBox="0 0 141.7 141.7" xmlns="http://www.w3.org/2000/svg"><g style="fill:none;stroke:#fff;stroke-width:6;stroke-linecap:round;stroke-linejoin:round;stroke-miterlimit:10"><path d="m48.8 28.1h61.3v84.6l-61.5-.2v-4.3-79.5c.1-2.8-2.9-7.2-7.9-7.2-5 0-7.3 4.6-7.3 7.2v83.5c0 4.9 4 7.7 9 7.7l51.8.1.1-7.3"/><path d="m33.4 109.8c0-5 2.9-9.2 7.9-9.2s7.3 4 7.3 9"/><path d="m59.8 67.5h16"/><path d="m59.8 76h16"/><path d="m59.8 84.5h16"/><path d="m59.8 92.9h16"/><path d="m59.8 101.4h16"/><path d="m84.5 67.5h16.1"/><path d="m84.5 76h16.1"/><path d="m84.5 84.5h16.1"/><path d="m84.5 92.9h16.1"/><path d="m84.5 101.4h16.1"/><path d="m61.9 36.6h33.6v19.5h-33.6z"/><path d="m95.5 55.7-21.1-12.2-12.5 12.2"/></g></svg>