<svg viewBox="0 0 32 32" xmlns="http://www.w3.org/2000/svg"><g fill="none" stroke="#000" stroke-linecap="round" stroke-width="2"><g stroke-miterlimit="10"><circle cx="11" cy="10.5" r="3.5"/><path d="m11 3.95v-1.45"/><path d="m6.37 5.87-1.03-1.03"/><path d="m4.45 10.5h-1.45"/><path d="m19 10.5h-1.45"/><path d="m6.37 15.13-1.03 1.03"/><path d="m16.66 4.84-1.03 1.03"/></g><path d="m25.87 20.73c-.33 0-.64.06-.94.15.05-.32.09-.65.09-.99 0-3.27-2.65-5.92-5.92-5.92s-5.66 2.4-5.9 5.45c-.53-.23-1.1-.37-1.72-.37-2.34 0-4.23 1.89-4.23 4.23s1.89 4.23 4.23 4.23h14.38c1.87 0 3.38-1.52 3.38-3.38s-1.52-3.38-3.38-3.38z" stroke-linejoin="round"/></g></svg>