<svg height="45mm" viewBox="0 0 127.559 127.559" width="45mm" xmlns="http://www.w3.org/2000/svg"><path d="m46.848 71.654-21.505-17.254 2.504-3.121 17.8 14.283 11.817-21.362 3.5 1.937z"/><path d="m81.088 71.654-14.117-25.517 3.5-1.937 11.818 21.362 17.799-14.283 2.503 3.121z"/><path d="m96.541 105.073h-64.594a3.506 3.506 0 0 1 -3.431-2.729l-10.53-45.7 3.9-.9 10.444 45.332h63.83l10.44-45.335 3.9.9-10.531 45.7a3.507 3.507 0 0 1 -3.428 2.732z"/><path d="m21.156 59.109a9.107 9.107 0 1 1 9.106-9.109 9.117 9.117 0 0 1 -9.106 9.109zm0-14.213a5.107 5.107 0 1 0 5.106 5.104 5.112 5.112 0 0 0 -5.106-5.1z"/><path d="m106.4 59.109a9.107 9.107 0 1 1 9.109-9.109 9.117 9.117 0 0 1 -9.109 9.109zm0-14.213a5.107 5.107 0 1 0 5.109 5.104 5.112 5.112 0 0 0 -5.109-5.1z"/><path d="m64.03 49.033a9.107 9.107 0 1 1 9.107-9.107 9.117 9.117 0 0 1 -9.107 9.107zm0-14.214a5.107 5.107 0 1 0 5.107 5.107 5.113 5.113 0 0 0 -5.107-5.107z"/></svg>