<svg height="45mm" viewBox="0 0 127.559 127.559" width="45mm" xmlns="http://www.w3.org/2000/svg"><g fill="#080304"><path d="m99.945 93.2a13.015 13.015 0 0 1 -5.4-1.184 154.31 154.31 0 0 1 -33.069-20.3 53.369 53.369 0 0 0 -12.939-7.816c-4.853-2.059-8.667-2.79-10.725-2.046l-4.559 1.636 2.077-4.376c.52-1.095 13.024-26.824 39.115-28.239a39.416 39.416 0 0 1 34.9 17.236c6.992 10.5 7.962 23.188 2.8 36.682a13.105 13.105 0 0 1 -12.2 8.4zm-59.177-35.593a30.43 30.43 0 0 1 9.332 2.613 57.431 57.431 0 0 1 13.9 8.39 150.285 150.285 0 0 0 32.2 19.764 9.056 9.056 0 0 0 12.207-5.007c4.743-12.408 3.937-23.524-2.4-33.037a35.4 35.4 0 0 0 -31.345-15.459c-18.425.999-29.727 16.004-33.894 22.736z"/><path d="m59.638 96.741a25.069 25.069 0 0 1 -4.8-.457 24.36 24.36 0 0 1 -15.782-11.047 33.971 33.971 0 0 0 -2.944-4.186c-8.846-10.338-17.299-11.361-21.547-11.051a2.244 2.244 0 0 1 -.943-4.344l22.886-7.582 1.258 3.8-15.257 5.051c4.85 1.4 10.727 4.614 16.642 11.525a37.6 37.6 0 0 1 3.3 4.678 20.336 20.336 0 0 0 13.149 9.23c7.88 1.539 17.216-1.564 27.744-9.229l2.356 3.235c-9.478 6.9-18.221 10.377-26.062 10.377z"/><path d="m51.76 63.39-3.444-2.033c.807-1.366 20.04-33.395 43.884-27.357l-.98 3.877c-20.988-5.299-39.277 25.205-39.46 25.513z"/><path d="m86.136 85.928-3.228-2.363c.2-.27 19.638-27.2 10.114-45.184l3.536-1.873c10.696 20.197-9.558 48.237-10.422 49.42z"/></g></svg>