<svg height="45mm" viewBox="0 0 127.559 127.559" width="45mm" xmlns="http://www.w3.org/2000/svg"><g fill="#040000"><path d="m91.024 116.82h-3.9a5.627 5.627 0 0 1 -5.744-5.487v-4.282h-35v4.282a5.626 5.626 0 0 1 -5.744 5.487h-3.9a5.625 5.625 0 0 1 -5.736-5.487v-4.282h-.054a6.22 6.22 0 0 1 -6.214-6.214v-32.158a6.22 6.22 0 0 1 6.214-6.213h65.873a6.22 6.22 0 0 1 6.214 6.213v32.158a6.22 6.22 0 0 1 -6.214 6.214h-.051v4.282a5.626 5.626 0 0 1 -5.744 5.487zm-48.643-13.769h43v8.282a1.633 1.633 0 0 0 1.744 1.487h3.9a1.633 1.633 0 0 0 1.744-1.487v-8.282h4.051a2.216 2.216 0 0 0 2.214-2.214v-32.158a2.216 2.216 0 0 0 -2.214-2.213h-65.879a2.216 2.216 0 0 0 -2.214 2.213v32.158a2.216 2.216 0 0 0 2.214 2.214h4.054v8.282a1.632 1.632 0 0 0 1.743 1.487h3.9a1.633 1.633 0 0 0 1.744-1.487z"/><path d="m72.686 64.808c-.6-3.475-5-6.519-8.807-7.245-3.8.726-8.2 3.77-8.8 7.245l-3.942-.684c.843-4.865 5.766-8.736 10.575-10.145v-9.047h-13.643a3.873 3.873 0 0 1 -3.769-4.763l6.248-26.448a3.863 3.863 0 0 1 3.769-2.982h19.126a3.859 3.859 0 0 1 3.768 2.98l6.249 26.451a3.871 3.871 0 0 1 -3.768 4.762h-13.641v9.047c4.81 1.408 9.733 5.28 10.576 10.145zm-10.635-23.876h17.48l-6.189-26.193h-18.925l-6.187 26.193z"/><path d="m26.86 82.219h73.064v4h-73.064z"/></g></svg>