<svg height="45mm" viewBox="0 0 127.559 127.559" width="45mm" xmlns="http://www.w3.org/2000/svg"><g fill="#040000"><path d="m35.7 87.3a23.522 23.522 0 1 1 23.518-23.52 23.548 23.548 0 0 1 -23.518 23.52zm0-43.043a19.522 19.522 0 1 0 19.518 19.523 19.543 19.543 0 0 0 -19.518-19.522z"/><path d="m90.78 87.3a23.522 23.522 0 1 1 23.52-23.52 23.548 23.548 0 0 1 -23.52 23.52zm0-43.043a19.522 19.522 0 1 0 19.52 19.523 19.543 19.543 0 0 0 -19.52-19.522z"/><path d="m112.302 61.437h10.435v4h-10.435z"/><path d="m4.823 61.437h10.435v4h-10.435z"/><path d="m59.313 64.963-2.586-3.052c.652-.552 4.047-3.309 6.9-3.309 3 0 5.783 2.911 6.31 3.5l-2.971 2.68c-.828-.911-2.452-2.175-3.339-2.175-.989-.007-3.141 1.366-4.314 2.356z"/></g></svg>