<svg viewBox="0 0 87.38 83.33" xmlns="http://www.w3.org/2000/svg" xmlns:xlink="http://www.w3.org/1999/xlink"><clipPath id="a"><path d="m0 0h87.38v83.26h-87.38z"/></clipPath><g clip-path="url(#a)"><path d="m43.69 0c-24.09 0-43.69 15.91-43.69 35.46 0 17.52 15.54 32.2 36.54 35 1.42.3 3.36.93 3.85 2.15a8.86 8.86 0 0 1 .14 4l-.62 3.74c-.19 1.11-.88 4.32 3.78 2.36s25.16-14.89 34.31-25.44c6.33-6.94 9.36-14 9.36-21.81.02-19.55-19.58-35.46-43.67-35.46zm-15.41 45.83a.85.85 0 0 1 -.85.85h-12.27a.86.86 0 0 1 -.59-.23.82.82 0 0 1 -.24-.59v-19a.85.85 0 0 1 .85-.85h3.07a.85.85 0 0 1 .85.85v15.14h8.33a.85.85 0 0 1 .85.85zm7.38 0a.85.85 0 0 1 -.85.84h-3.06a.85.85 0 0 1 -.85-.84v-19a.85.85 0 0 1 .85-.85h3.06a.85.85 0 0 1 .85.85zm21.2-.09a.85.85 0 0 1 -.85.84h-3.45a1 1 0 0 1 -.21-.21l-8.74-11.8v11.53a.85.85 0 0 1 -.85.84h-3.07a.85.85 0 0 1 -.85-.84v-19a.86.86 0 0 1 .85-.85h3.45l.06.05.07.09 8.73 11.78v-11.32a.85.85 0 0 1 .85-.85h3.07l.1-.09a.85.85 0 0 1 .85.85zm16.82-15.82a.86.86 0 0 1 -.85.86h-8.32v3.22h8.32a.85.85 0 0 1 .85.85v3.07a.85.85 0 0 1 -.85.85h-8.32v3.23h8.32a.85.85 0 0 1 .85.85v3a.85.85 0 0 1 -.85.85h-12.23a.86.86 0 0 1 -.59-.23.83.83 0 0 1 -.24-.58v-19a.86.86 0 0 1 .23-.59.82.82 0 0 1 .59-.24h12.24a.85.85 0 0 1 .85.85z" fill="#fff"/></g></svg>