<svg viewBox="0 0 1024 1024" xmlns="http://www.w3.org/2000/svg"><path d="m711.3 660 22.7-148h-142v-96c0-40.49 19.84-80 83.44-80h64.56v-126s-58.59-10-114.61-10c-116.95 0-193.39 70.88-193.39 199.2v112.8h-130v148h130v357.78a517.79 517.79 0 0 0 160 0v-357.78z" fill="none"/><path d="m1024 512c0-282.77-229.23-512-512-512s-512 229.23-512 512c0 255.55 187.23 467.37 432 505.78v-357.78h-130v-148h130v-112.8c0-128.32 76.44-199.2 193.39-199.2 56 0 114.61 10 114.61 10v126h-64.56c-63.6 0-83.44 39.47-83.44 80v96h142l-22.7 148h-119.3v357.78c244.77-38.41 432-250.23 432-505.78z" fill="#fff"/></svg>