<svg height="45mm" viewBox="0 0 127.559 127.559" width="45mm" xmlns="http://www.w3.org/2000/svg"><g fill="#080304"><path d="m93.252 89.444c-2.463 0-4.286-.123-5.323-1.721a2.9 2.9 0 0 1 -.146-.25 6.128 6.128 0 0 1 -.456-3.3c-1.971.419-3.932.887-5.848 1.344-3.667.876-7.459 1.781-11.36 2.363l-.133.021a145.061 145.061 0 0 1 -19.057 1.299 117.266 117.266 0 0 1 -11.729-.568l-.925-.093c-7.205-.727-16.166-1.629-24.189-4.054a15.3 15.3 0 0 1 -4.133-2.3c-2.133-1.605-3.313-3.194-3.6-4.858a4.591 4.591 0 0 1 -.064-1.016 6.2 6.2 0 0 1 -.541-4.853c1.072-3.6 5.29-6.528 9.406-6.528 2.3 0 17.127-1.154 21.654-2.371 10.058-2.708 20.045-11.287 24.31-14.951.481-.413.9-.771 1.225-1.042 2.65-2.187 9.445-7.784 9.445-7.784a2.875 2.875 0 0 1 2.147-.652 2.928 2.928 0 0 1 2 1.114c.253.32.527.65.818 1a21.125 21.125 0 0 1 3.672 5.6 10.786 10.786 0 0 1 .7 5.62c.406.113.825.211 1.267.3l.143.031a3.94 3.94 0 0 0 .778.052c5.837 0 22.607-5.221 28.117-6.937 1.679-.523 2.352-.731 2.7-.817a4.493 4.493 0 0 1 5.527 2.376 12.257 12.257 0 0 1 .886 3.176l.1.51a65.7 65.7 0 0 1 1.441 10.091 55.64 55.64 0 0 1 -.563 7.812c-.147 1.2-.313 2.412-.468 3.429-.052.338-.1.617-.134.849a25.129 25.129 0 0 1 .342 2.5c0 .065.418 7.069-.577 9.163-1.153 2.42-3.528 3.174-5.7 3.592a196.23 196.23 0 0 1 -21.732 1.853zm-1.953-4.091a15.125 15.125 0 0 0 1.952.088 199.28 199.28 0 0 0 20.949-1.78c2.42-.466 2.706-1.065 2.859-1.387a35.763 35.763 0 0 0 .2-7.1 18.666 18.666 0 0 0 -.34-2.34l-.1-.418.08-.422c.049-.26.106-.614.183-1.116.15-.98.31-2.158.451-3.312a54.026 54.026 0 0 0 .537-7.176 62.625 62.625 0 0 0 -1.37-9.472l-.1-.533a9.845 9.845 0 0 0 -.547-2.158c-.167-.342-.259-.342-.424-.342a2.229 2.229 0 0 0 -.533.082c-.266.066-1.225.364-2.438.742-10.7 3.33-23.646 7.134-29.359 7.134a7.586 7.586 0 0 1 -1.722-.165 18.085 18.085 0 0 1 -3.577-1.069l-1.708-.7.569-1.758a6.84 6.84 0 0 0 -.157-4.822 17.422 17.422 0 0 0 -3.027-4.515l-.2-.238c-1.907 1.571-6.519 5.37-8.589 7.078-.31.257-.708.6-1.169.994-4.469 3.836-14.939 12.831-25.875 15.774-5.022 1.352-20.154 2.509-22.693 2.509-2.345 0-5 1.747-5.571 3.666a2.171 2.171 0 0 0 .382 2.037l.625.811-.29.98a.486.486 0 0 0 -.006.217c.038.216.3 1.021 2.069 2.35a12.016 12.016 0 0 0 2.886 1.665c7.651 2.312 16.4 3.193 23.426 3.9l.932.094a113.094 113.094 0 0 0 11.325.544 140.967 140.967 0 0 0 18.481-1.251h.027c3.762-.556 7.5-1.448 11.113-2.311 2.8-.669 5.7-1.361 8.639-1.9l2.569-.474-.213 2.6c-.028.344-.061.707-.094 1.053a21.728 21.728 0 0 0 -.151 2.444z"/><path d="m94.915 76.416a24.679 24.679 0 0 0 -6.933-4.134l-.189-.069a26.613 26.613 0 0 0 -8.593-1.232 47.574 47.574 0 0 0 -6.571.483c-.118.021-.513.151-.75.228a9.149 9.149 0 0 1 -2.837.586 4.555 4.555 0 0 1 -1.223-.162 4.268 4.268 0 0 1 -3.514-4.816l.02-.115a3.459 3.459 0 0 1 .082-.394l.171-.537c.063-.159.117-.286.177-.411a11.237 11.237 0 0 1 2.95-3.417c.913-.838 1.919-1.684 2.806-2.429l.717-.6 1.348 1.479-1.225-1.583.218-.186 1.415 1.422-1.295-1.529.465-.4 1.41 1.424-1.312-1.51.125-.11 1.416 1.418-1.314-1.507 1.171-1.074 1.489 1.343-1.4-1.43 1.526 1.3-1.414-1.414.227-.225 1.49 1.337-1.414-1.414 1.362-1.506q.322-.4.625-.817l.458-.674c.032-.092.068-.181.108-.268l3.641 1.655a.8.8 0 0 0 .05-.147l-.071.334-.9 1.387c-.3.412-.573.772-.859 1.121l-3.573 3.6-1.43-1.406 1.311 1.51-.122.106-1.421-1.415 1.323 1.5-.376.324-1.41-1.422 1.3 1.518-.384.326-1.365-1.464 1.279 1.535-.622.523c-.853.718-1.824 1.535-2.739 2.372a8.276 8.276 0 0 0 -1.974 2.126l-.051.119-1.913-.589 1.878.688-.02.11a.272.272 0 0 0 0 .071c.012.045.127.18.586.3a5.241 5.241 0 0 0 1.783-.361 8.824 8.824 0 0 1 1.431-.386c6.59-.927 12.553-.614 17.018.92l.367.136a28.509 28.509 0 0 1 7.982 4.745z"/><path d="m46.836 82.546a125.128 125.128 0 0 1 -39.123-6.874l1.387-3.75c.224.083 22.793 8.324 45.2 6.3a314.176 314.176 0 0 0 38.465-5.632c1.348-.276 2.584-.529 3.737-.752 7.7-1.5 21.528-3.273 22.113-3.347l.507 3.967c-.141.018-14.282 1.834-21.857 3.305-1.141.222-2.365.473-3.7.746a318.129 318.129 0 0 1 -38.908 5.7c-2.623.231-5.243.337-7.821.337z"/></g></svg>