<svg height="45mm" viewBox="0 0 127.559 127.559" width="45mm" xmlns="http://www.w3.org/2000/svg"><g fill="none" stroke="#080304" stroke-miterlimit="10" stroke-width="4"><path d="m92.074 40.445s-18.974 1.887-28.294 10.374c-9.317-8.487-28.295-10.374-28.295-10.374s-4.141 8.8-2.416 17.289 4.486 19.8 3.8 27.662a141.161 141.161 0 0 1 -3.451 18.546 164.15 164.15 0 0 0 30.366 2.83 164.132 164.132 0 0 0 30.365-2.83 141.161 141.161 0 0 1 -3.455-18.542c-.69-7.858 2.07-19.175 3.8-27.662s-2.42-17.293-2.42-17.293z"/><path d="m39.029 40.122.97-21.839"/><path d="m88.531 40.122-.971-21.839"/></g></svg>