<svg viewBox="0 0 32 32" xmlns="http://www.w3.org/2000/svg"><g fill="none" stroke="#000" stroke-linecap="round" stroke-linejoin="round" stroke-width="2"><path d="m10.5 4.11-3 3"/><path d="m19.5 4.11-4 4"/><path d="m23.5 9.11 4-4"/><path d="m28.5 13.11-3 3"/><path d="m27.5 23.11-2 2"/><path d="m8.23 14.48c1.08 1.08 1.14 2.98 1.14 2.98s2.31-.09 3.85 1.45 1.45 3.85 1.45 3.85 1.95.11 2.98 1.14 1.3 3.11 1.3 3.11c2.85-3.11 2.85-9.5-.74-13.09s-9.98-3.59-13.09-.74c0 0 2.03.21 3.11 1.3z"/><path d="m19.31 12.82-.55.55"/><path d="m18.2 13.93s-2.78-.27-4.99.87-3.84 2.67-3.84 2.67"/><path d="m18.2 13.93s.27 2.78-.87 4.99-2.67 3.84-2.67 3.84"/><path d="m12.94 19.19-5.26 5.26c-.61.61-1.6.61-2.22 0s-.61-1.6 0-2.22"/></g></svg>