<svg enable-background="new 0 0 142.6 175.1" viewBox="0 0 142.6 175.1" xmlns="http://www.w3.org/2000/svg"><g style="fill:none;stroke:#000;stroke-width:4;stroke-linecap:round;stroke-linejoin:round;stroke-miterlimit:10"><path d="m107.8 112.2h-7.2v-22.6s.3-5.5 2.2-7.5 5.9-8.4 6.5-12.2-1.1-14.4-1.1-14.4-1.4-5.7 3.3-6 9.1-1.4 9.5-6 0-8.3 0-8.3-5.3.3-7.3-.7-10.6-7.2-17-6.8c-6.3.4-12.5 3.4-13.4 11.6s-1 15.1-8.9 23.3-16.8 16-20.7 28.7-3 17.1-3 17.1-4.6 3.6-10.5 3.7-16.4-4-16.4-4"/><path d="m97 37.6s1.9 12.8-5.2 12.6c-7-.1-8.5-10.5-8.5-10.5"/><path d="m64.8 95.1s6-7.6 11.9-6.8c14.8 2.2 1.1 23.9 1.1 23.9"/><path d="m83.5 112.9s-26.9 0-29.5 0-3.8-2.2-3.5-6"/></g><g enable-background="new"><path d="m32.2 130.1c-.1.5-.1 1-.2 1.4-.1 2.7-.4 10.4-1.6 13.1-.6 1.2-1.5 1.8-3.1 1.8-1.5 0-3-.1-4.4-.2l-.3-2.8c1.4.2 2.8.3 3.9.3.8 0 1.2-.2 1.5-.9.9-1.9 1.3-8 1.3-10.9h-6.9c-1 7.5-3.7 11.6-8.3 14.9l-2.5-2c1-.5 2.2-1.3 3.1-2.3 2.6-2.5 4.3-5.7 4.9-10.6h-4.1c-1 0-2.3 0-3.3.1v-2.8c1 .1 2.2.2 3.3.2h4.3c.1-.8.1-1.7.1-2.6 0-.6-.1-1.7-.2-2.3h3.3c-.1.6-.1 1.6-.1 2.3 0 .9-.1 1.8-.1 2.6h5.8c.7 0 1.3-.1 1.9-.2z"/><path d="m37.1 133.8c.9.1 2.5.2 4 .2h14.6c1.3 0 2.4-.1 3-.2v3.3c-.6 0-1.8-.1-3-.1h-14.7c-1.5 0-3.1.1-4 .1v-3.3z"/><path d="m79 139.2c-2.9-1.5-7.2-3.2-10.2-4.2v8.3c0 .8.1 2.5.2 3.4h-3.3c.1-.9.2-2.4.2-3.4v-15.6c0-.9-.1-2.1-.2-3h3.3c-.1.9-.2 2.1-.2 3v4.2c3.6 1.1 8.7 3 11.4 4.3z"/><path d="m94.3 144.2c.9-.1 1.7-.2 2.4-.4 3.4-.8 6.5-3.3 6.5-7.6 0-3.9-2.3-6.9-6.4-7.4-.4 2.4-.9 5-1.6 7.5-1.6 5.4-3.8 8.5-6.5 8.5-2.6 0-5.1-3-5.1-7.4 0-5.9 5.3-11.1 11.9-11.1 6.4 0 10.5 4.5 10.5 10.1s-3.6 9.5-10.1 10.4zm-1.9-8.5c.7-2.1 1.2-4.5 1.5-6.9-4.8.8-7.6 5-7.6 8.2 0 3.1 1.4 4.5 2.5 4.5 1.1.1 2.4-1.7 3.6-5.8z"/><path d="m132 141.8c-.8-.7-1.6-1.3-2.6-2-1.1 3.3-3.2 5.7-6.9 7.6l-2.3-1.9c4.1-1.8 6-4.5 6.9-7.2-2.1-1.1-4.5-2-7-2.3-1 2.3-2.2 5.2-3.2 6.7s-2.2 2.1-3.7 2.1c-2.1 0-3.7-1.5-3.7-4 0-4 3.7-7.1 9-7.3.9-1.9 1.8-4 2.5-5.5-1.1 0-3.9.2-5.1.2-.6 0-1.4.1-2.1.2l-.1-2.7c.7.1 1.5.1 2.1.1 1.5 0 4.7-.1 5.8-.2.6 0 1.1-.2 1.5-.3l1.7 1.3c-.3.3-.6.6-.8 1-.7 1.2-1.8 3.7-2.8 6.1 2.4.3 4.6 1.1 6.6 2 .1-.5.1-1 .2-1.5.1-.8.1-1.8 0-2.6l2.7.3c-.1 1.9-.2 3.5-.5 5.1 1.2.7 2.2 1.4 3.1 1.9zm-14.6-5.7c-3.4.4-5.4 2.5-5.4 4.5 0 .9.6 1.5 1.3 1.5.6 0 1-.2 1.5-.9.8-1.2 1.7-3.2 2.6-5.1z"/></g></svg>