<svg enable-background="new 0 0 462.6 175.1" viewBox="0 0 462.6 175.1" xmlns="http://www.w3.org/2000/svg"><g style="fill:none;stroke:#000;stroke-width:4;stroke-linecap:round;stroke-linejoin:round;stroke-miterlimit:10"><path d="m121.1 112.2h-7.2v-22.6s.3-5.5 2.2-7.5 5.9-8.4 6.5-12.2-1.1-14.4-1.1-14.4-1.4-5.7 3.3-6 9.1-1.4 9.5-6 0-8.3 0-8.3-5.3.3-7.3-.7-10.6-7.2-17-6.8c-6.3.4-12.5 3.4-13.4 11.6s-1 15.1-8.9 23.3-16.8 16-20.7 28.7-3 17.1-3 17.1-4.6 3.6-10.5 3.7-16.4-4-16.4-4"/><path d="m110.3 37.6s1.9 12.8-5.2 12.6c-7-.1-8.5-10.5-8.5-10.5"/><path d="m78.1 95.1s6-7.6 11.9-6.8c14.8 2.2 1.1 23.9 1.1 23.9"/><path d="m96.8 112.9s-26.9 0-29.5 0-3.8-2.2-3.5-6"/><path d="m276.4 112.2h-7.2v-22.6s.3-5.5 2.2-7.5 5.9-8.4 6.5-12.2-1.1-14.4-1.1-14.4-1.4-5.7 3.3-6 9.1-1.4 9.5-6 0-8.3 0-8.3-5.3.3-7.3-.7-10.6-7.2-17-6.8c-6.3.4-12.5 3.4-13.4 11.6s-1 15.1-8.9 23.3-16.8 16-20.7 28.7-3 17.1-3 17.1-4.6 3.6-10.5 3.7-16.4-4-16.4-4"/><path d="m265.6 37.6s1.9 12.8-5.2 12.6c-7-.1-8.5-10.5-8.5-10.5"/><path d="m233.4 95.1s6-7.6 11.9-6.8c14.8 2.2 1.1 23.9 1.1 23.9"/><path d="m252.1 112.9s-26.9 0-29.5 0-3.8-2.2-3.5-6"/><path d="m424 112.2h-7.2v-22.6s.3-5.5 2.2-7.5 5.9-8.4 6.5-12.2-1.1-14.4-1.1-14.4-1.4-5.7 3.3-6 9.1-1.4 9.5-6 0-8.3 0-8.3-5.3.3-7.3-.7-10.6-7.2-17-6.8c-6.3.4-12.5 3.4-13.4 11.6s-1 15.1-8.9 23.3-16.8 16-20.7 28.7-3 17.1-3 17.1-4.6 3.6-10.5 3.7-16.4-4-16.4-4"/><path d="m413.2 37.6s1.9 12.8-5.2 12.6c-7-.1-8.5-10.5-8.5-10.5"/><path d="m381 95.1s6-7.6 11.9-6.8c14.8 2.2 1.1 23.9 1.1 23.9"/><path d="m399.7 112.9s-26.9 0-29.5 0-3.8-2.2-3.5-6"/></g><path d="m27.5 145.6c1.6 0 1.9-.5 2-3.6.6.4 1.6.8 2.3.9-.4 4-1.1 5-4.1 5h-6.3c-3.4 0-4.4-.6-4.4-3.3v-7.6h6.2v-3.5h-5.6v-1.4c-.3.5-.7.9-1.1 1.3-.4-.4-1.4-1.2-1.9-1.6.3-.3.6-.6.9-.9h-2.3v4.7l2.3-.6.3 2.2c-.9.3-1.8.5-2.6.8v7.1c0 1.3-.3 2-1 2.4-.8.4-1.9.5-3.7.5-.1-.6-.4-1.7-.7-2.4h2.6c.3 0 .5-.1.5-.5v-6.4l-3.4 1-.5-2.5c1.1-.2 2.4-.6 3.9-1v-5.4h-3.6v-2.3h3.4v-5.2h2.4v5.2h2.3v2.3c1.6-2 2.9-4.7 3.6-7.6l2.4.5c-.3 1-.6 1.9-1 2.9h10.6v1.1c-.2 8.7-.4 11.8-1.2 12.8-.5.6-.9.9-1.7 1-.6.1-1.7.1-2.9.1 0-.7-.3-1.7-.6-2.3 1 .1 1.8.1 2.2.1s.6-.1.8-.4c.5-.6.7-3.1.9-10h-9c-.4.8-.9 1.6-1.4 2.4h7.4v7.8h-6.1v5.4c0 1 .3 1.2 2.1 1.2h6z"/><path d="m54.7 133.4c-1.1.4-2.6.8-4.4 1.1.8 1.6 1.6 3.3 2.3 4.7l-1.3 1.6c-1.4-.3-3.7-.6-5.5-.8l.2-2c1.2.1 2.4.2 3.2.3-.5-1-1-2.2-1.5-3.4-3.4.4-7.7.5-11.8.2l-.1-2.5c4 .4 7.8.3 11 0l-.7-1.7c-.2-.5-.4-1-.6-1.4-2.7.2-6 .2-9.3-.1l-.2-2.4c3.1.4 6 .4 8.5.3l-.2-.5c-.4-.9-.7-1.4-1.1-2.1l3-.6c.2.9.6 1.8.9 2.9 1.8-.3 3.6-.7 5.2-1.3l.5 2.4c-1.4.5-3 .8-4.8 1.1l.5 1.1c.2.5.5 1.2.9 1.9 2.1-.4 3.7-.9 4.8-1.3zm-15.1 5.3c-.3.8-.6 2-.6 2.7 0 1.9 1.4 3.1 5.1 3.1 2.3 0 4.9-.2 6.8-.6l-.1 2.7c-1.6.3-4.2.5-6.6.5-4.9 0-7.8-1.7-7.8-5.2 0-1.2.3-2.5.6-3.4z"/><path d="m68.9 124.8c-.1.6-.3 1.2-.4 1.8-.2.8-.4 2.1-.6 3.3 1.1-.1 2-.1 2.7-.1 2.6 0 4.6 1.1 4.6 4.8 0 3.2-.4 7.4-1.5 9.7-.9 1.8-2.2 2.3-4.1 2.3-1 0-2.3-.2-3.2-.4l-.5-2.8c1.1.3 2.6.6 3.3.6.9 0 1.7-.2 2.2-1.3.8-1.7 1.2-5 1.2-7.8 0-2.3-1-2.7-2.7-2.7-.5 0-1.4.1-2.4.1-1 3.9-2.9 10-5.5 14.3l-2.8-1.1c2.6-3.6 4.6-9.3 5.5-12.9-1.2.1-2.3.2-2.9.3-.7.1-1.9.2-2.7.4l-.2-2.9c.9.1 1.7 0 2.6 0s2.3-.1 3.8-.3c.4-2 .6-4 .6-5.7zm9.2 2.6c1.6 2.2 3.9 7.2 4.8 9.7l-2.6 1.3c-.8-2.8-2.8-7.6-4.7-9.9z"/><path d="m95 124.8c-.1.6-.3 1.2-.4 1.8-.2.8-.4 2.1-.6 3.3 1.1-.1 2-.1 2.7-.1 2.6 0 4.6 1.1 4.6 4.8 0 3.2-.4 7.4-1.5 9.7-.9 1.8-2.2 2.3-4.1 2.3-1 0-2.3-.2-3.2-.4l-.5-2.8c1.1.3 2.6.6 3.3.6.9 0 1.7-.2 2.2-1.3.8-1.7 1.2-5 1.2-7.8 0-2.3-1-2.7-2.7-2.7-.5 0-1.4.1-2.4.1-1 3.9-2.9 10-5.5 14.3l-2.8-1.1c2.6-3.6 4.6-9.3 5.5-12.9-1.2.1-2.3.2-2.9.3-.7.1-1.9.2-2.7.4l-.2-2.9c.9.1 1.7 0 2.6 0s2.3-.1 3.8-.3c.4-2 .6-4 .6-5.7zm9.2 2.6c1.6 2.2 3.9 7.2 4.8 9.7l-2.6 1.3c-.8-2.8-2.8-7.6-4.7-9.9z"/><path d="m126.1 133.6c-1.1 1-3.9 3.5-4.7 4.4.2 0 .8.1 1 .1.9.2 1.5.8 1.9 1.9.2.8.6 1.9.8 2.7.3.9.9 1.4 2.1 1.4 1.9 0 3.8-.2 5.1-.5l-.2 2.8c-1.1.2-3.7.4-5.1.4-2.3 0-3.7-.5-4.3-2.3-.3-.8-.6-2.2-.9-3-.3-.9-.9-1.3-1.5-1.3s-1.2.4-1.9 1c-1 .9-3.4 3.6-5.1 5.7l-2.5-1.8c.4-.3 1-.8 1.5-1.4 1.2-1.2 7.7-7.6 10.2-10.3-2 .1-5.9.4-7.5.6-.9.1-1.6.2-2.2.3l-.2-3c.6.1 1.5.1 2.4.1 1.4 0 7.5-.4 9.7-.6.5-.1 1.1-.2 1.3-.3l1.6 1.8c-.6.5-1.1 1-1.5 1.3zm.8-7.9-.3 2.5c-2.7-.2-7.5-.8-10.7-1.4l.4-2.5c2.9.7 8 1.3 10.6 1.4z"/><path d="m158.2 127.6h-3.2v17c0 1.6-.4 2.5-1.5 2.8-1.2.5-3 .5-5.7.5-.1-.7-.6-2-1-2.7 2 .1 4.3.1 4.9.1s.8-.2.8-.8v-17h-18.1v-2.5h23.9v2.6zm-18.8 13.6v2.1h-2.4v-12.2h11v10.1zm0-7.7v5.4h6.2v-5.4z"/><path d="m199.9 130.1c-.1.5-.1 1-.2 1.4-.1 2.7-.4 10.4-1.6 13.1-.6 1.2-1.5 1.8-3.1 1.8-1.5 0-3-.1-4.4-.2l-.3-2.8c1.4.2 2.8.3 3.9.3.8 0 1.2-.2 1.5-.9.9-1.9 1.3-8 1.3-10.9h-6.9c-1 7.5-3.7 11.6-8.3 14.9l-2.5-2c1-.5 2.2-1.3 3.1-2.3 2.6-2.5 4.3-5.7 4.9-10.6h-4.1c-1 0-2.3 0-3.3.1v-2.8c1 .1 2.2.2 3.3.2h4.3c.1-.8.1-1.7.1-2.6 0-.6-.1-1.7-.2-2.3h3.2c-.1.6-.1 1.6-.1 2.3 0 .9-.1 1.8-.1 2.6h5.8c.7 0 1.3-.1 1.9-.2z"/><path d="m204.8 133.8c.9.1 2.5.2 4 .2h14.6c1.3 0 2.4-.1 3-.2v3.3c-.6 0-1.8-.1-3-.1h-14.7c-1.5 0-3.1.1-4 .1v-3.3z"/><path d="m247.1 139.2c-2.9-1.5-7.2-3.2-10.2-4.2v8.3c0 .8.1 2.5.2 3.4h-3.3c.1-.9.2-2.4.2-3.4v-15.6c0-.9-.1-2.1-.2-3h3.3c-.1.9-.2 2.1-.2 3v4.2c3.6 1.1 8.7 3 11.4 4.3z"/><path d="m263.4 144.2c.9-.1 1.7-.2 2.4-.4 3.4-.8 6.5-3.3 6.5-7.6 0-3.9-2.3-6.9-6.4-7.4-.4 2.4-.9 5-1.6 7.5-1.6 5.4-3.8 8.5-6.5 8.5-2.6 0-5.1-3-5.1-7.4 0-5.9 5.3-11.1 11.9-11.1 6.4 0 10.5 4.5 10.5 10.1s-3.6 9.5-10.1 10.4zm-1.9-8.5c.7-2.1 1.2-4.5 1.5-6.9-4.8.8-7.6 5-7.6 8.2 0 3.1 1.4 4.5 2.5 4.5 1.1.1 2.4-1.7 3.6-5.8z"/><path d="m300.8 141.8c-.8-.7-1.6-1.3-2.6-2-1.1 3.3-3.2 5.7-6.9 7.6l-2.3-1.9c4.1-1.8 6-4.5 6.9-7.2-2.1-1.1-4.5-2-7-2.3-1 2.3-2.2 5.2-3.2 6.7s-2.2 2.1-3.7 2.1c-2.1 0-3.7-1.5-3.7-4 0-4 3.7-7.1 9-7.3.9-1.9 1.8-4 2.5-5.5-1 0-3.9.2-5.1.2-.6 0-1.4.1-2.1.2l-.1-2.7c.7.1 1.5.1 2.1.1 1.5 0 4.7-.1 5.8-.2.6 0 1.1-.2 1.5-.3l1.7 1.3c-.3.3-.6.6-.8 1-.7 1.2-1.8 3.7-2.8 6.1 2.4.3 4.6 1.1 6.6 2 .1-.5.1-1 .2-1.5.1-.8.1-1.8 0-2.6l2.7.3c-.1 1.9-.2 3.5-.5 5.1 1.2.7 2.2 1.4 3.1 1.9zm-14.6-5.7c-3.4.4-5.4 2.5-5.4 4.5 0 .9.6 1.5 1.3 1.5.6 0 1-.2 1.5-.9.8-1.2 1.7-3.2 2.6-5.1z"/><path d="m344.2 132.5c.6 0 1.6-.1 2.3-.1v2.8c-.6-.1-1.6-.1-2.3-.1h-6.9c-.1 2.9-.6 5.2-1.7 7.2-1 1.8-3 3.8-5.4 5l-2.5-1.8c2-.8 3.9-2.3 5-4 1.2-1.8 1.5-3.9 1.6-6.4h-7.8c-.8 0-1.7 0-2.5.1v-2.8c.8.1 1.6.1 2.5.1zm-14.3-4.3c-.9 0-1.9 0-2.6.1v-2.8c.8.1 1.8.2 2.6.2h10.9c.8 0 1.8-.1 2.7-.2v2.8c-.9-.1-1.9-.1-2.7-.1z"/><path d="m371 132.9c-.1.3-.4.7-.4.9-.8 2.6-2 5.4-4 7.6-2.8 3.1-6.2 4.8-9.6 5.7l-2.1-2.4c3.9-.8 7.2-2.6 9.4-4.8 1.5-1.6 2.5-3.6 3-5.4h-13.7c-.6 0-1.8 0-2.9.1v-2.8c1.1.1 2.1.2 2.9.2h13.8c.7 0 1.4-.1 1.7-.2zm-17.8-7.4c.7.1 1.7.1 2.6.1h10.5c.9 0 2-.1 2.6-.1v2.8c-.7-.1-1.8-.1-2.7-.1h-10.5c-.8 0-1.8 0-2.6.1v-2.8z"/><path d="m392.2 127.7c-.2.3-.6.9-.8 1.4-.9 2.2-2.5 5.3-4.4 7.7 2.8 2.4 6 5.8 7.7 7.9l-2.4 2.1c-1.8-2.4-4.4-5.4-7.1-7.9-2.9 3.1-6.5 6-10.4 7.7l-2.2-2.3c4.4-1.7 8.4-4.9 11.1-7.9 1.8-2 3.6-5 4.3-7.1h-9.9c-1.1 0-2.5.1-2.9.2v-3c.5.1 2.1.2 2.9.2h10c1 0 1.9-.1 2.3-.3z"/><path d="m407.7 144.2c.9-.1 1.7-.2 2.4-.4 3.4-.8 6.5-3.3 6.5-7.6 0-3.9-2.3-6.9-6.4-7.4-.4 2.4-.9 5-1.6 7.5-1.6 5.4-3.8 8.5-6.5 8.5-2.6 0-5.1-3-5.1-7.4 0-5.9 5.3-11.1 11.9-11.1 6.4 0 10.5 4.5 10.5 10.1s-3.6 9.5-10.1 10.4zm-1.8-8.5c.7-2.1 1.2-4.5 1.5-6.9-4.8.8-7.6 5-7.6 8.2 0 3.1 1.4 4.5 2.5 4.5 1 .1 2.3-1.7 3.6-5.8z"/><path d="m445.2 141.8c-.8-.7-1.6-1.3-2.6-2-1.1 3.3-3.2 5.7-6.9 7.6l-2.3-1.9c4.1-1.8 6-4.5 6.9-7.2-2.1-1.1-4.5-2-7-2.3-1 2.3-2.2 5.2-3.2 6.7s-2.2 2.1-3.7 2.1c-2.1 0-3.7-1.5-3.7-4 0-4 3.7-7.1 9-7.3.9-1.9 1.8-4 2.5-5.5-1 0-3.9.2-5.1.2-.6 0-1.4.1-2.1.2l-.1-2.7c.7.1 1.5.1 2.1.1 1.5 0 4.7-.1 5.8-.2.6 0 1.1-.2 1.5-.3l1.7 1.3c-.3.3-.6.6-.8 1-.7 1.2-1.8 3.7-2.8 6.1 2.4.3 4.6 1.1 6.6 2 .1-.5.1-1 .2-1.5.1-.8.1-1.8 0-2.6l2.7.3c-.1 1.9-.2 3.5-.5 5.1 1.2.7 2.2 1.4 3.1 1.9zm-14.7-5.7c-3.4.4-5.4 2.5-5.4 4.5 0 .9.6 1.5 1.3 1.5.6 0 1-.2 1.5-.9.9-1.2 1.8-3.2 2.6-5.1z"/></svg>