<svg height="45mm" viewBox="0 0 127.559 127.559" width="45mm" xmlns="http://www.w3.org/2000/svg"><g fill="#080304"><path d="m59.41 98.015a34.788 34.788 0 1 1 34.79-34.788 34.827 34.827 0 0 1 -34.79 34.788zm0-65.575a30.788 30.788 0 1 0 30.79 30.787 30.822 30.822 0 0 0 -30.79-30.787z"/><path d="m59.41 89.355a26.128 26.128 0 1 1 26.128-26.128 26.158 26.158 0 0 1 -26.128 26.128zm0-48.256a22.128 22.128 0 1 0 22.128 22.128 22.154 22.154 0 0 0 -22.128-22.127z"/><path d="m102.937 72.619h-11.809v-16.919h11.809zm-7.809-4h3.809v-8.919h-3.809z"/><path d="m58.593 67.79-12.841-8.475 2.203-3.338 10.411 6.872 12.351-9.884 2.5 3.123z"/><path d="m73.75 108.358h-28.698l-2.875-15.506 3.933-.729 2.268 12.235h22.081l2.255-11.485 3.925.772z"/><path d="m70.916 122.531h-23.313l-2.876-15.506 3.934-.729 2.268 12.235h16.696l2.254-11.484 3.925.77z"/><path d="m46.11 34.75-3.933-.728 2.875-15.506h28.698l2.889 14.713-3.925.771-2.255-11.484h-22.081z"/><path d="m48.661 20.577-3.934-.728 2.876-15.506h23.313l2.888 14.714-3.925.769-2.254-11.483h-16.696z"/></g></svg>