<svg enable-background="new 0 0 141.7 141.7" viewBox="0 0 141.7 141.7" xmlns="http://www.w3.org/2000/svg"><g fill="none" stroke="#040000" stroke-linejoin="round" stroke-miterlimit="10" stroke-width="4"><path d="m58.3 68.3h45.1v53.7h-45.1z"/><path d="m58.3 122h-11.3v-53.7h11.3"/><path d="m90 75v5c0 14.2-18.5 14.2-18.5 0v-5"/><path d="m71.4 68.7v-15.3h11.7"/><path d="m55.5 67.6c0-5.1 4.1-9.2 9.2-9.2 2.9 0 5.4 1.3 7.1 3.4"/><path d="m100.8 69.2s.6-8.5-1.6-13.1c-2.5-5.4-3.7-6.9-3-11"/><path d="m85.2 45.1c.7 4.2-.5 5.6-3 11-2.2 4.6-1.6 13.1-1.6 13.1"/><path d="m83.4 39.8h14.7v5.6h-14.7z"/><path d="m63 49.5 2.5-2.5v-3.7h3.7l2.5-2.5 2.6 2.5h3.6v3.7l2.6 2.5"/><path d="m49.3 68.5c-6.3-25.6-10.1-45.6-4.3-47.1 5.4-1.4 11 15 17 37.5"/><path d="m45.8 35.9c1.5-1.5 3.3-1.9 5.4-1.4"/><path d="m47.5 47c2.1-2 4.5-2.5 7.3-1.8"/><path d="m50 58.1c2.3-2.2 4.9-2.8 8-2"/></g></svg>