<svg viewBox="0 0 123.11 123.66" xmlns="http://www.w3.org/2000/svg"><g fill="none" stroke="#fff" stroke-linecap="round" stroke-miterlimit="10"><g stroke-width="6"><path d="m67.99 89.74h52.12"/><path d="m113.12 51.97v37.77"/><path d="m85.66 79.25 16.79-16.79"/><path d="m96.33 81.34 8.39-8.4"/><path d="m118.72 38a8.4 8.4 0 0 1 -16.8 0 8.4 8.4 0 0 1 -16.8 0 8.4 8.4 0 0 1 -16.79 0 8.4 8.4 0 0 1 -16.79 0 8.4 8.4 0 0 1 -16.79 0v-5.6h83.94z"/><path d="m97.73 3 4.19 29.38"/><path d="m83.74 3 1.39 29.38"/><path d="m55.75 3-4.19 29.38"/><path d="m69.74 3-1.39 29.38"/><path d="m34.77 32.38 6.99-29.38h2.8 64.36 2.8l6.99 29.38"/></g><path d="m68.41 80.59a28.56 28.56 0 1 1 -28.56-28.59 28.56 28.56 0 0 1 28.56 28.59z" stroke-width="5.565808"/><path d="m20.95 102.42-17.95 18.24" stroke-width="6"/></g></svg>