<svg height="49.999mm" viewBox="0 0 141.73 141.73" width="49.999mm" xmlns="http://www.w3.org/2000/svg"><path d="m101.132 100.272h-58.432a10.515 10.515 0 0 1 -10.5-10.5v-36.019a10.515 10.515 0 0 1 10.5-10.5h58.436a10.515 10.515 0 0 1 10.5 10.5v36.016a10.515 10.515 0 0 1 -10.504 10.503zm-58.432-53.022a6.51 6.51 0 0 0 -6.5 6.5v36.019a6.511 6.511 0 0 0 6.5 6.5h58.436a6.512 6.512 0 0 0 6.5-6.5v-36.016a6.511 6.511 0 0 0 -6.5-6.5z"/><path d="m35.404 53.78h75.282v4h-75.282z"/><path d="m35.404 64.754h75.282v4h-75.282z"/><path d="m41.989 73.534h11.897v4h-11.897z"/></svg>