<svg viewBox="0 0 87.38 83.26" xmlns="http://www.w3.org/2000/svg" xmlns:xlink="http://www.w3.org/1999/xlink"><clipPath id="a"><path d="m0 0h87.38v83.26h-87.38z"/></clipPath><g clip-path="url(#a)"><path d="m87.38 35.46c0-19.55-19.6-35.46-43.69-35.46s-43.69 15.91-43.69 35.46c0 17.52 15.54 32.2 36.54 35 1.42.3 3.36.93 3.85 2.15a8.94 8.94 0 0 1 .14 4l-.62 3.74c-.19 1.11-.88 4.32 3.78 2.36s25.16-14.89 34.31-25.44c6.33-6.94 9.36-14 9.36-21.81" fill="#040000"/><g fill="#fff"><path d="m34.81 26h-3.06a.85.85 0 0 0 -.85.85v19a.85.85 0 0 0 .85.84h3.06a.85.85 0 0 0 .85-.84v-19a.85.85 0 0 0 -.85-.85"/><path d="m55.91 26h-3.07a.85.85 0 0 0 -.85.85v11.32l-8.72-11.78-.07-.09-.06-.05h-.05-.05-.05-3.3a.86.86 0 0 0 -.85.85v19a.85.85 0 0 0 .85.84h3.07a.85.85 0 0 0 .85-.84v-11.51l8.74 11.8a1 1 0 0 0 .21.21h.05.06.06.21 3.07a.85.85 0 0 0 .85-.84v-19a.85.85 0 0 0 -.85-.85"/><path d="m27.43 42h-8.33v-15.14a.85.85 0 0 0 -.85-.85h-3.07a.85.85 0 0 0 -.85.85v19a.83.83 0 0 0 .24.59s0 0 0 0a.89.89 0 0 0 .59.23h12.27a.85.85 0 0 0 .85-.85v-3a.85.85 0 0 0 -.85-.85"/><path d="m72.83 30.78a.86.86 0 0 0 .85-.86v-3.06a.85.85 0 0 0 -.85-.85h-12.24a.83.83 0 0 0 -.59.24.87.87 0 0 0 -.23.59v19a.83.83 0 0 0 .24.58.87.87 0 0 0 .59.23h12.23a.85.85 0 0 0 .85-.85v-2.97a.85.85 0 0 0 -.85-.85h-8.32v-3.22h8.32a.85.85 0 0 0 .85-.85v-3.07a.85.85 0 0 0 -.85-.85h-8.32v-3.21z"/></g></g></svg>