<svg height="45mm" viewBox="0 0 127.559 127.559" width="45mm" xmlns="http://www.w3.org/2000/svg"><g fill="#040000"><path d="m90.065 60.262h-1.582a5.629 5.629 0 0 1 -5.619-5.351c-.4-7.874-3.061-26.188-19.085-26.188s-18.679 18.314-19.079 26.188a5.627 5.627 0 0 1 -5.618 5.351h-1.588a5.62 5.62 0 0 1 -5.622-5.826c.336-8.878 3.629-37.842 31.907-37.842s31.573 28.965 31.908 37.842a5.62 5.62 0 0 1 -5.622 5.826zm-26.286-35.539c19.456 0 22.622 20.969 23.08 29.985a1.631 1.631 0 0 0 1.624 1.554h1.582a1.615 1.615 0 0 0 1.175-.5 1.588 1.588 0 0 0 .449-1.175c-.385-10.222-3.876-33.994-27.91-33.994s-27.523 23.773-27.91 33.994a1.6 1.6 0 0 0 .45 1.176 1.616 1.616 0 0 0 1.175.5h1.583a1.629 1.629 0 0 0 1.623-1.555c.458-9.016 3.624-29.985 23.079-29.985z"/><path d="m17.637 90.793h92.285v4h-92.285z"/><path d="m78.42 73.623h-29.281v-15.1h29.281zm-25.281-4h21.281v-7.1h-21.281z"/><path d="m109.267 108.461h-90.974a4.883 4.883 0 0 1 -4.865-5.3l4.815-55.9a4.854 4.854 0 0 1 4.864-4.461h11.914v4h-11.914a.878.878 0 0 0 -.879.807l-4.814 55.9a.883.883 0 0 0 .879.957h90.974a.87.87 0 0 0 .649-.286.88.88 0 0 0 .23-.672l-4.815-55.9a.878.878 0 0 0 -.879-.807h-11.914v-4h11.914a4.854 4.854 0 0 1 4.864 4.462l4.814 55.9a4.882 4.882 0 0 1 -4.863 5.3z"/><path d="m44.15 42.8h39.258v4h-39.258z"/></g></svg>