<?xml version="1.0" encoding="utf-8"?>
<!-- Generator: Adobe Illustrator 28.0.0, SVG Export Plug-In . SVG Version: 6.00 Build 0)  -->
<svg version="1.1" id="レイヤー_1" xmlns="http://www.w3.org/2000/svg" xmlns:xlink="http://www.w3.org/1999/xlink" x="0px"
	 y="0px" viewBox="0 0 141.7 141.7" style="enable-background:new 0 0 141.7 141.7;" xml:space="preserve">
<style type="text/css">
	.st0{fill:none;stroke:#080304;stroke-width:6;stroke-linecap:round;stroke-miterlimit:10;}
	.st1{fill:none;stroke:#080304;stroke-width:6;stroke-linecap:round;stroke-linejoin:round;stroke-miterlimit:10;}
</style>
<path class="st0" d="M81.6,89.2c0,15.8-12.8,28.6-28.6,28.6s-28.6-12.8-28.6-28.6c0-15.8,12.8-28.6,28.6-28.6S81.6,73.4,81.6,89.2z"
	/>
<line class="st0" x1="34.2" y1="111" x2="16.2" y2="129.2"/>
<path class="st1" d="M58.6,61V50.6l-8.4,2c-0.2,0-0.3,0.1-0.5,0.1c-0.9,0-1.7-0.6-2-1.4l-5.5-17.9c-0.3-0.9,0.1-1.8,1-2.2l19.3-10.3
	c0.3-0.2,0.7-0.3,1-0.3h44c0.4,0,0.7,0.1,1,0.3l19.3,10.3c0.8,0.4,1.2,1.3,1,2.2l-5.5,18c-0.3,0.8-1.1,1.4-2,1.4c0,0,0,0,0,0
	c-0.2,0-0.3,0-0.5-0.1l-8.4-2v43.7c0,1.1-0.9,1.9-2.1,1.9H81.2"/>
<path class="st1" d="M98.5,22.5c0,6.7-5.9,12.2-13.1,12.2c-7.2,0-13.1-5.5-13.1-12.2"/>
</svg>
