<svg height="49.999mm" viewBox="0 0 141.73 141.73" width="49.999mm" xmlns="http://www.w3.org/2000/svg"><path d="m95.463 128.618h-47.1a10.516 10.516 0 0 1 -10.5-10.5v-95.546a10.516 10.516 0 0 1 10.5-10.5h47.1a10.516 10.516 0 0 1 10.5 10.5v95.542a10.516 10.516 0 0 1 -10.5 10.504zm-47.1-112.55a6.512 6.512 0 0 0 -6.5 6.5v95.542a6.512 6.512 0 0 0 6.5 6.5h47.1a6.512 6.512 0 0 0 6.5-6.5v-95.538a6.512 6.512 0 0 0 -6.5-6.5z"/><path d="m41.073 22.599h63.942v4h-63.942z"/><path d="m41.073 107h63.942v4h-63.942z"/><path d="m65.467 116.146h11.897v4h-11.897z"/></svg>